<svg width="207" height="162" viewBox="0 0 207 162" fill="none" xmlns="http://www.w3.org/2000/svg">
<path d="M21.1 23.15C20.26 22.2 19.45 21.19 18.63 20.1C19.5 21.1 20.32 22.13 21.1 23.15Z" fill="#F3B12E"/>
<path d="M15.16 43.38C12.82 42.41 9.23004 40.46 7.03004 38.65C5.14004 37.09 5.35004 35.75 5.84004 34.89C6.17004 34.33 6.69004 33.95 7.34004 33.79C9.26004 33.31 12.09 34.92 15.32 36.92C15.7 37.15 16.04 37.36 16.31 37.52C17.14 38.01 17.95 38.52 18.75 39.04C20.62 40.25 20.36 41.7 20.03 42.47C19.25 44.32 17.44 44.06 16.85 43.96C16.79 43.96 16.74 43.95 16.68 43.93C16.29 43.82 15.76 43.63 15.15 43.38H15.16Z" fill="#F3B12E"/>
<path d="M15.28 20.58C17.31 23.46 19.38 25.89 21.62 28C22.01 28.37 22.43 28.64 22.85 28.82C23.89 29.25 24.97 29.12 25.71 28.38C27.19 26.88 26.13 25.21 25.77 24.65C24.09 22 22.09 19.41 19.82 16.94C19.21 16.27 18.47 15.8 17.69 15.59C17.63 15.58 17.58 15.57 17.53 15.56C16.41 15.36 15.42 15.76 14.88 16.62C14.2 17.69 14.36 19.29 15.28 20.6V20.58ZM21.1 23.15C20.26 22.2 19.45 21.19 18.63 20.1C19.5 21.1 20.32 22.13 21.1 23.15Z" fill="#F3B12E"/>
<path d="M15.36 56.95C14.65 57.47 13.85 57.81 13.01 57.97C9.23005 58.69 6.05004 59.04 3.03004 59.03C2.46004 59.03 1.98004 58.93 1.60004 58.77C0.530045 58.32 0.180045 57.41 0.0800447 56.94C-0.219955 55.66 0.340045 54.6 1.72004 53.8C3.06004 53.03 6.09004 52.68 10.55 52.26C11.56 52.16 12.48 52.07 13.23 51.98C14.65 51.81 15.88 52.48 16.35 53.67C16.81 54.84 16.4 56.18 15.36 56.94V56.95Z" fill="#F3B12E"/>
<path d="M182.4 29.98C182.01 29.98 181.64 29.8 181.39 29.49C162.78 9.1 182.03 -5.88 190.24 11.2C210.09 5.44 209.96 32.09 182.41 29.98H182.4Z" fill="#FCD882"/>
<path d="M24.9399 80.96C24.9399 124.01 59.8399 158.91 102.89 158.91C145.94 158.91 180.84 124.01 180.84 80.96C180.84 37.91 145.96 3.01 102.91 3C59.8599 3 24.9599 37.88 24.9499 80.93C24.9499 80.93 24.9499 80.95 24.9499 80.96H24.9399Z" fill="#82D0C8"/>
<path d="M173.54 48.01C164.13 27.88 146.59 12.71 125.32 6.29001H113.73C108.55 6.17001 104.02 9.79001 103 14.87C102.05 20.49 105.83 25.82 111.45 26.78C111.88 26.85 112.31 26.9 112.75 26.92C115.49 27.03 118.21 28.05 119.82 30.27C121.36 32.39 121.78 34.97 121.16 37.3C120.1 41 116.68 43.51 112.84 43.43H83.3799C72.1199 43.2 62.6 51.74 61.61 62.96C61 74.34 69.73 84.07 81.11 84.68C81.48 84.7 81.85 84.71 82.22 84.71H94.36C97.35 84.71 99.7699 87.13 99.7699 90.12V94.51C99.7399 97.05 101.77 99.13 104.31 99.16C104.31 99.16 104.4 99.16 104.42 99.16C114.77 99.25 103.53 122.23 108.51 127.83C111.06 130.7 114.75 132.3 118.59 132.2H123.5C136.92 132.2 141.04 119.82 141.04 113.63V92.95C141.04 88.76 143.36 84.92 147.07 82.99C148.88 81.88 150.42 80.46 151.66 78.82C154.94 74.45 151.66 68.19 146.19 68.19C143.91 68.19 142.05 66.34 142.05 64.05V58.88C142.05 56.6 143.9 54.74 146.19 54.74H163.84C168.17 54.74 172.04 52.05 173.53 47.99L173.54 48.01Z" fill="#81A046"/>
<path d="M79.21 155.25C80.64 152.06 83.81 150.01 87.31 150C88.57 150 89.76 149.47 90.61 148.54C92.34 146.63 94.8 145.54 97.38 145.54H118.49C120.95 145.54 122.94 147.53 122.94 149.99C122.94 152.45 124.93 154.44 127.39 154.44H128.91C112.87 160.09 95.42 160.37 79.2 155.24L79.21 155.25Z" fill="#81A046"/>
<path fill-rule="evenodd" clip-rule="evenodd" d="M39.5201 35.486C40.5496 36.182 40.8199 37.5807 40.1239 38.6102C31.9576 50.6898 27.1899 65.2531 27.1899 80.93V80.96C27.1899 82.8771 27.2581 84.7787 27.4032 86.6457C27.4995 87.8846 26.5732 88.967 25.3343 89.0633C24.0954 89.1595 23.013 88.2333 22.9167 86.9944C22.7618 85.0013 22.6899 82.9829 22.6899 80.96V80.9301C22.6899 64.327 27.7423 48.8903 36.3959 36.0899C37.0919 35.0604 38.4906 34.79 39.5201 35.486Z" fill="#033A43"/>
<path fill-rule="evenodd" clip-rule="evenodd" d="M98.0796 0.893784C99.6689 0.801501 101.283 0.75 102.9 0.75H102.901C147.193 0.760289 183.08 36.668 183.08 80.96C183.08 83.0397 182.998 85.0865 182.844 87.12C182.75 88.3591 181.669 89.2874 180.43 89.1936C179.191 89.0997 178.263 88.0191 178.356 86.78C178.502 84.8535 178.58 82.9203 178.58 80.96C178.58 39.152 144.707 5.25971 102.9 5.25C101.377 5.25 99.8511 5.2985 98.3405 5.38622C97.0999 5.45825 96.0358 4.51098 95.9638 3.27043C95.8918 2.02987 96.8391 0.965816 98.0796 0.893784Z" fill="#033A43"/>
<path fill-rule="evenodd" clip-rule="evenodd" d="M163.825 129.624C164.773 130.427 164.89 131.847 164.086 132.795C149.377 150.148 127.419 161.16 102.89 161.16C81.7581 161.16 62.5254 152.978 48.2055 139.626C47.2967 138.778 47.247 137.354 48.0944 136.446C48.9419 135.537 50.3656 135.487 51.2745 136.334C64.7946 148.942 82.9419 156.66 102.89 156.66C126.041 156.66 146.763 146.272 160.654 129.885C161.457 128.937 162.877 128.82 163.825 129.624Z" fill="#033A43"/>
<path d="M67.59 11.52C73.11 11.37 77.71 15.72 77.87 21.24C78.02 26.76 73.67 31.36 68.15 31.52C62.63 31.67 58.03 27.32 57.87 21.8C57.87 21.71 57.87 21.61 57.87 21.52C57.8 16.08 62.15 11.6 67.6 11.52H67.59Z" fill="white"/>
<path d="M66.53 1.83C25.03 2.71 67.21 64.88 67.21 64.88C71.49 58.82 108.03 0.950001 66.53 1.83ZM77.31 21.51C77.39 26.95 73.04 31.43 67.59 31.51C62.32 31.51 58.01 27.33 57.86 22.06C57.71 16.69 61.93 12.21 67.3 12.06C72.67 11.91 77.15 16.13 77.3 21.5L77.31 21.51Z" fill="#DA6A9E"/>
<path d="M80.75 39.87C80.37 39.71 79.94 39.89 79.78 40.26C76.26 48.36 72.06 56.15 67.23 63.55C64.03 58.63 49.23 34.97 49.02 18.61C49.02 18.2 48.68 17.87 48.27 17.88C47.86 17.88 47.53 18.22 47.54 18.63C47.78 37.32 65.84 64.16 66.61 65.29C66.84 65.63 67.3 65.72 67.64 65.49C67.71 65.44 67.78 65.38 67.83 65.3C73 57.56 77.46 49.37 81.15 40.83C81.3 40.46 81.12 40.04 80.76 39.88L80.75 39.87Z" fill="#033A43" stroke="#033A43" stroke-width="2" stroke-linecap="round" stroke-linejoin="round"/>
<path d="M61.19 15.02C64.77 11.34 70.65 11.26 74.33 14.84C78.01 18.42 78.09 24.3 74.51 27.98C74.22 28.27 74.23 28.74 74.52 29.03C74.81 29.32 75.28 29.31 75.57 29.02C79.72 24.76 79.63 17.93 75.36 13.78C71.1 9.63 64.27 9.72 60.12 13.99C59.83 14.28 59.84 14.75 60.13 15.04C60.42 15.33 60.89 15.32 61.18 15.03L61.19 15.02Z" fill="#033A43" stroke="#033A43" stroke-width="2" stroke-linecap="round" stroke-linejoin="round"/>
<path d="M14.91 147.4L18.2 149.37C18.84 149.75 19.67 149.53 20.02 148.87L22.41 144.46C22.76 143.8 23.6 143.58 24.23 143.96L28.37 146.44C29.01 146.82 29.84 146.6 30.2 145.94L31.49 143.54C31.82 142.92 31.61 142.15 31.01 141.79L26.66 139.19C26.06 138.83 25.85 138.06 26.18 137.44L28.67 132.84C29 132.22 28.79 131.45 28.19 131.09L25.97 129.77C25.33 129.39 24.5 129.62 24.15 130.27L21.77 134.68C21.42 135.34 20.59 135.56 19.95 135.18L15.8 132.71C15.16 132.33 14.33 132.56 13.98 133.21L12.69 135.59C12.36 136.21 12.57 136.98 13.17 137.34L17.52 139.94C18.12 140.3 18.33 141.07 18 141.69L14.92 147.4H14.91Z" fill="#DA6A9E"/>
<path d="M199.22 133.6C194.69 131.66 190.16 137.48 185.5 134.25C182.59 132.24 180.77 124.87 176.78 123.53C174.57 122.78 172.39 124.85 172.86 127.14C174.07 132.98 179.7 141.44 184.59 141.77C188.21 142.03 191.45 138.28 195.2 139.96C199.86 142.16 202.19 149.93 205.04 149.02C209.57 147.6 204.26 135.69 199.22 133.62V133.6Z" fill="#F3B12E"/>
</svg>
