<svg width="339" height="360" viewBox="0 0 339 360" fill="none" xmlns="http://www.w3.org/2000/svg">
<circle cx="175" cy="174" r="164" fill="#FCF7E8"/>
<path fill-rule="evenodd" clip-rule="evenodd" d="M5.74833 78.9138L4.5496 53.7407C4.41797 50.975 6.39823 48.5825 9.14045 48.1982L17.616 47.0096C18.8509 46.8358 19.8613 46.3198 20.727 45.4195L21.5154 44.5972C23.0962 42.9521 25.4237 42.4905 27.5154 43.4096L33.7543 46.1522L30.1227 49.4489L40.5314 52.5976C41.482 52.8859 42.2316 53.3532 42.9057 54.0816L46.3949 57.8549C47.3306 58.8654 48.4689 59.424 49.8394 59.5461L59.9398 60.45C60.6121 60.5096 61.1752 60.6661 61.7832 60.9575L66.7212 63.3369C68.1509 64.0268 69.6513 64.0643 71.1155 63.4481L74.8465 61.8732C77.0547 60.941 78.3372 58.7585 78.0797 56.3773L74.9306 27.3526L79.0094 26.7902C81.8842 26.3934 84.5559 28.3744 85.0114 31.2418L85.8553 36.5482C86.0875 38.008 86.8096 39.1818 88.01 40.0457C89.2103 40.9075 90.5496 41.2211 92.0078 40.9764L99.2994 39.7591L99.3486 39.6761C100.415 37.8747 100.364 35.7592 99.2115 34.0136L97.2883 31.0982L103.489 29.5953C106.013 28.9832 108.557 30.2304 109.619 32.6011L111.197 36.1207L113.791 31.0297L115.793 36.4429C116.397 38.0812 117.627 39.2289 119.304 39.7191L120.543 40.0796C121.249 40.2861 121.888 40.3413 122.618 40.2616L144.924 37.8245C146.386 37.6645 147.589 37.0047 148.509 35.8569C149.43 34.7087 149.813 33.3904 149.651 31.9282L148.736 23.6842C148.574 22.2198 148.958 20.9012 149.88 19.7531C150.802 18.6049 152.005 17.9452 153.47 17.787L169.833 16.0148L169.105 12.6621L170.927 12.1326C173.45 11.3969 176.08 12.5651 177.226 14.9294L183.05 26.9413C183.263 27.3786 183.395 27.7773 183.488 28.2556L185.23 37.2638C185.361 37.946 185.584 38.5079 185.954 39.0978L194.973 53.3993C195.632 54.4427 196.503 55.146 197.662 55.5677L203.168 57.5725L200.771 59.2637C198.602 60.7917 197.883 63.6186 199.06 65.9959L203.198 74.3612C203.863 75.7022 203.946 77.0956 203.448 78.5075C202.949 79.9173 202.009 80.9506 200.65 81.5769L116.218 120.55L115.811 118.806L102.195 120.387C99.3273 120.719 96.7114 118.707 96.2957 115.852L94.6551 104.587C94.2346 101.711 91.5818 99.6938 88.6988 100.06L87.4177 100.222L87.4999 97.6808L71.5458 99.6205C69.4771 99.8725 67.5685 98.9855 66.4285 97.2384L61.9584 90.3873L63.1213 89.5622C64.9746 88.2511 65.7765 86.0423 65.1999 83.8486L65.1618 83.7L65.0041 83.7158C63.4703 83.8849 62.0861 83.4534 60.9199 82.4403C59.7562 81.429 59.1342 80.121 59.0833 78.5785L59.0111 76.2804C58.9625 74.7398 58.3406 73.4318 57.1789 72.4202C56.0152 71.409 54.6349 70.9748 53.1026 71.1395L47.9031 71.7014C45.1036 72.0034 43.0253 74.4127 43.1395 77.2253L43.283 80.7735C43.3617 82.7705 42.4193 84.5264 40.7075 85.5596L36.8229 87.904L37.3257 90.2711L23.8801 92.8895L23.0103 87.6311L18.3997 87.9648C16.584 88.0952 14.9618 87.3828 13.8302 85.9541L12.4477 84.21C12.4477 84.21 11.5064 84.0781 10.4973 83.9675C7.86768 83.6771 5.87494 81.5566 5.74833 78.9138ZM63.3528 70.2539L63.4859 74.4916L65.4151 74.3491C66.9453 74.2358 68.3031 74.7111 69.43 75.7505C70.5569 76.7899 71.1395 78.1072 71.1487 79.64L71.1498 79.7996L75.1883 79.6919L75.2932 80.518C75.4816 82.0024 76.1851 83.2149 77.3815 84.1134C78.5801 85.0137 79.9377 85.3527 81.4187 85.12L91.3429 83.5621C92.3855 83.4 93.2402 82.9996 94.0339 82.3045L99.6706 77.3643C100.563 76.5864 101.545 76.1656 102.722 76.0629L103.588 75.985L103.519 74.3299C103.452 72.8171 102.838 71.538 101.695 70.539C100.555 69.5418 99.204 69.106 97.6962 69.2442L96.0427 69.3943C93.5158 69.6277 91.2286 68.1071 90.4655 65.6878L90.4057 65.5015L63.3528 70.2539Z" fill="#96B85A"/>
<path d="M209.99 90.1128L219.297 114.951C219.958 116.712 221.357 117.915 223.197 118.302L230.529 119.847L226.591 122.484C224.665 123.772 223.808 126.033 224.395 128.274L226.629 136.798C226.997 138.2 226.821 139.535 226.105 140.793L165.127 247.88C164.003 249.853 161.88 250.87 159.638 250.509C157.396 250.148 155.699 248.514 155.253 246.289L153.33 236.726C152.779 233.986 150.225 232.141 147.451 232.479L120.477 235.753C117.653 236.097 115.061 234.169 114.573 231.368L112.59 219.953C112.09 217.078 114.002 214.326 116.869 213.79L134.497 210.5C137.024 210.028 138.823 207.888 138.855 205.317L139.039 190.823L143.441 191.213C145.141 191.363 146.669 190.777 147.829 189.525C148.99 188.271 149.458 186.704 149.181 185.02L144.479 156.705C144.098 154.408 142.376 152.688 140.076 152.311L126.482 150.082C124.302 149.726 122.645 148.174 122.144 146.022L118.578 130.681C117.997 128.188 119.217 125.696 121.542 124.623L202.751 87.1371C204.15 86.4929 205.595 86.4609 207.02 87.0469C208.443 87.6312 209.45 88.6687 209.989 90.113L209.99 90.1128Z" fill="#96B85A"/>
<path d="M209.99 90.1128L219.297 114.951C219.958 116.712 221.357 117.915 223.197 118.302L230.529 119.847L226.591 122.484C224.665 123.772 223.808 126.033 224.395 128.274L226.629 136.798C226.997 138.2 226.821 139.535 226.105 140.793L165.127 247.88C164.003 249.853 161.88 250.87 159.638 250.509C157.396 250.148 155.699 248.514 155.253 246.289L153.33 236.726C152.779 233.986 150.225 232.141 147.451 232.479L120.477 235.753C117.653 236.097 115.061 234.169 114.573 231.368L112.59 219.953C112.09 217.078 114.002 214.326 116.869 213.79L134.497 210.5C137.024 210.028 138.823 207.888 138.855 205.317L139.039 190.823L143.441 191.213C145.141 191.363 146.669 190.777 147.829 189.525C148.99 188.271 149.458 186.704 149.181 185.02L144.479 156.705C144.098 154.408 142.376 152.688 140.076 152.311L126.482 150.082C124.302 149.726 122.645 148.174 122.144 146.022L118.578 130.681C117.997 128.188 119.217 125.696 121.542 124.623L202.751 87.1371C204.15 86.4929 205.595 86.4609 207.02 87.0469C208.443 87.6312 209.45 88.6687 209.989 90.113L209.99 90.1128Z" stroke="white"/>
<path d="M229.081 147.506L229.774 156.396C229.861 157.499 230.223 158.424 230.911 159.294L236.767 166.687C236.858 166.805 236.933 166.908 237.017 167.032L251.937 189.322C252.258 189.803 252.469 190.256 252.63 190.808L256.98 205.862C257.303 206.976 257.886 207.843 258.796 208.565L262.027 211.125C262.373 211.401 262.644 211.671 262.916 212.022L276.431 229.306L278.389 228.986C280.604 228.626 282.703 229.606 283.845 231.538L286.115 235.372L288.011 235.892C289.989 236.438 291.401 237.94 291.822 239.949L293.733 249.093L294.033 249.161C296.32 249.668 297.952 251.504 298.188 253.835L298.785 259.729C298.932 261.171 298.551 262.466 297.645 263.6L296.032 265.617L298.548 268.082C299.502 269.018 300.022 270.124 300.131 271.454L302.371 298.436C302.543 300.515 301.58 302.391 299.787 303.462L299.096 303.874C297.504 304.826 296.577 306.383 296.499 308.238L296.32 312.586L298.675 312.958C300.373 313.228 301.951 312.738 303.196 311.551L304.718 310.101L305.831 319.385C306.177 322.262 304.153 324.899 301.282 325.306L252.397 332.267C249.645 332.659 247.069 330.893 246.441 328.184L244.178 318.392L241.947 318.624C240.505 318.775 239.314 319.412 238.386 320.529L238.281 320.658C237.402 321.722 236.292 322.342 234.927 322.538L224.83 323.988L225.817 320.989C226.141 320.004 226.66 319.239 227.453 318.572L229.13 317.162L228.775 315.824C228.393 314.392 227.551 313.297 226.262 312.562C224.975 311.826 223.603 311.655 222.175 312.056L216.135 313.747L215.2 311.219C214.302 308.79 211.858 307.374 209.302 307.805L199.186 309.515L198.726 307.965C198.044 305.663 196.008 304.145 193.609 304.145L192.02 304.144L192.23 301.471C192.371 299.691 193.281 298.221 194.814 297.306L195.459 296.92L195.309 295.867C194.9 293.017 192.301 291.001 189.437 291.318L188.481 291.424L189.904 296.391C189.927 296.471 189.945 296.542 189.964 296.624L190.185 297.549C190.587 299.238 190.208 300.863 189.099 302.199L186.761 305.014C186.761 305.014 187.169 309.014 186.47 309.103L183.08 309.533L182.1 305.808L164.866 308.907L164.595 307.48C164.067 304.715 165.765 302.026 168.489 301.312L170.508 300.785C173.075 300.112 174.739 297.713 174.468 295.074L173.711 287.683C173.439 285.042 175.108 282.642 177.677 281.973L179.323 281.544L179.956 286.528L187.997 285.878C190.884 285.644 193.061 283.143 192.899 280.254L192.776 278.096C192.725 277.208 192.866 276.438 193.228 275.625L195.723 270.01C196.136 269.078 196.269 268.181 196.14 267.168L195.783 264.352C195.594 262.861 194.886 261.65 193.685 260.749C192.482 259.85 191.121 259.513 189.639 259.753L173.699 262.31C171.622 262.644 169.662 261.811 168.465 260.081C167.265 258.353 167.172 256.225 168.214 254.397L229.081 147.506Z" fill="#96B85A"/>
<path d="M229.081 147.506L229.774 156.396C229.861 157.499 230.223 158.424 230.911 159.294L236.767 166.687C236.858 166.805 236.933 166.908 237.017 167.032L251.937 189.322C252.258 189.803 252.469 190.256 252.63 190.808L256.98 205.862C257.303 206.976 257.886 207.843 258.796 208.565L262.027 211.125C262.373 211.401 262.644 211.671 262.916 212.022L276.431 229.306L278.389 228.986C280.604 228.626 282.703 229.606 283.845 231.538L286.115 235.372L288.011 235.892C289.989 236.438 291.401 237.94 291.822 239.949L293.733 249.093L294.033 249.161C296.32 249.668 297.952 251.504 298.188 253.835L298.785 259.729C298.932 261.171 298.551 262.466 297.645 263.6L296.032 265.617L298.548 268.082C299.502 269.018 300.022 270.124 300.131 271.454L302.371 298.436C302.543 300.515 301.58 302.391 299.787 303.462L299.096 303.874C297.504 304.826 296.577 306.383 296.499 308.238L296.32 312.586L298.675 312.958C300.373 313.228 301.951 312.738 303.196 311.551L304.718 310.101L305.831 319.385C306.177 322.262 304.153 324.899 301.282 325.306L252.397 332.267C249.645 332.659 247.069 330.893 246.441 328.184L244.178 318.392L241.947 318.624C240.505 318.775 239.314 319.412 238.386 320.529L238.281 320.658C237.402 321.722 236.292 322.342 234.927 322.538L224.83 323.988L225.817 320.989C226.141 320.004 226.66 319.239 227.453 318.572L229.13 317.162L228.775 315.824C228.393 314.392 227.551 313.297 226.262 312.562C224.975 311.826 223.603 311.655 222.175 312.056L216.135 313.747L215.2 311.219C214.302 308.79 211.858 307.374 209.302 307.805L199.186 309.515L198.726 307.965C198.044 305.663 196.008 304.145 193.609 304.145L192.02 304.144L192.23 301.471C192.371 299.691 193.281 298.221 194.814 297.306L195.459 296.92L195.309 295.867C194.9 293.017 192.301 291.001 189.437 291.318L188.481 291.424L189.904 296.391C189.927 296.471 189.945 296.542 189.964 296.624L190.185 297.549C190.587 299.238 190.208 300.863 189.099 302.199L186.761 305.014C186.761 305.014 187.169 309.014 186.47 309.103L183.08 309.533L182.1 305.808L164.866 308.907L164.595 307.48C164.067 304.715 165.765 302.026 168.489 301.312L170.508 300.785C173.075 300.112 174.739 297.713 174.468 295.074L173.711 287.683C173.439 285.042 175.108 282.642 177.677 281.973L179.323 281.544L179.956 286.528L187.997 285.878C190.884 285.644 193.061 283.143 192.899 280.254L192.776 278.096C192.725 277.208 192.866 276.438 193.228 275.625L195.723 270.01C196.136 269.078 196.269 268.181 196.14 267.168L195.783 264.352C195.594 262.861 194.886 261.65 193.685 260.749C192.482 259.85 191.121 259.513 189.639 259.753L173.699 262.31C171.622 262.644 169.662 261.811 168.465 260.081C167.265 258.353 167.172 256.225 168.214 254.397L229.081 147.506Z" stroke="white"/>
<path d="M247.377 128.128L247.423 128.139L247.469 128.147C247.774 128.2 248.249 128.57 248.399 129.073C248.427 129.166 248.433 129.301 248.341 129.504C248.247 129.713 248.064 129.956 247.792 130.178L235.525 139.05L234.85 139.539L234.908 140.37L235.959 155.431C235.966 156.057 235.666 156.458 235.333 156.644C235.011 156.824 234.559 156.862 234.072 156.526C230.137 153.472 229.191 152.757 227.838 151.734C226.778 150.933 225.468 149.943 222.274 147.49L221.569 146.949L220.755 147.308L206.965 153.393L206.946 153.402L206.927 153.411C206.592 153.57 206.352 153.569 206.189 153.532C206.012 153.493 205.83 153.389 205.669 153.213C205.295 152.806 205.266 152.318 205.361 152.103L205.387 152.044L205.408 151.982L210.384 137.465L210.661 136.658L210.108 136.007L200.398 124.587L200.398 124.587L200.394 124.582C200.173 124.324 200.06 123.78 200.289 123.218C200.493 122.716 200.842 122.49 201.277 122.516L201.304 122.517L201.331 122.518L216.175 122.847L216.954 122.865L217.416 122.238C217.769 121.759 217.816 121.68 218.661 120.252L218.726 120.143L218.726 120.143C219.641 118.597 221.47 115.508 225.432 108.917C225.698 108.533 225.953 108.359 226.142 108.279C226.336 108.197 226.535 108.183 226.733 108.225C227.177 108.319 227.539 108.671 227.644 109.012L231.799 123.604L232.039 124.447L232.891 124.651L247.377 128.128Z" fill="#F3B12E" stroke="#FCF7E8" stroke-width="3"/>
</svg>
