<svg width="211" height="166" viewBox="0 0 211 166" fill="none" xmlns="http://www.w3.org/2000/svg">
<path d="M168.07 53.26C167.13 65.37 163.35 87.63 158.01 108.21C153.58 124.44 154.47 145.94 156.26 151.13C159.65 160.27 121.09 143.32 84.57 157.05C68.28 163.27 68.25 171.03 63.65 154.34C59.81 140.43 62.47 127.07 66.37 113.52C79.76 67.39 83.5 56.77 69.42 10.94C67.89 5.94001 78.22 6.28001 80.86 6.00001C106.68 3.29001 132.11 1.09001 158.09 1.29001C160.21 1.29001 162.21 2.41001 163.21 4.30001C170.67 18.36 168.07 53.27 168.07 53.27V53.26Z" fill="#FBF2DB"/>
<path d="M170.57 52.88C169.61 65.16 165.74 87.74 160.27 108.61C155.73 125.07 156.64 146.88 158.48 152.15C161.95 161.42 122.46 144.23 85.07 158.15C68.4 164.46 68.36 172.33 63.65 155.4C59.72 141.29 62.44 127.74 66.44 113.99C80.15 67.2 83.98 56.43 69.56 9.93999C67.99 4.86999 78.56 5.20999 81.27 4.92999C107.71 2.17999 133.74 -0.0400063 160.34 0.149994C162.51 0.169994 164.56 1.28999 165.58 3.19999C173.22 17.46 170.56 52.87 170.56 52.87M163.48 8.51999C162.63 5.53999 159.79 3.55999 156.7 3.67999C72.63 7.10999 71.77 9.29999 72.38 11.12C100.11 89.2 53.16 110.9 67.56 161.32C68.19 163.18 68.83 163.08 69.95 161.92C100.79 137.92 153.27 152.35 155.18 152.04C153.07 147.14 151.52 125.44 155.58 110.03C155.58 110.03 173.2 42.53 163.48 8.51999Z" fill="#033A43"/>
<path d="M140.74 103.39C127.91 103.33 89.6301 102.03 89.6601 98.28C90.0201 96.04 128.4 98.13 140.99 101.49C142.09 101.78 141.88 103.4 140.74 103.4V103.39Z" fill="#033A43"/>
<path d="M138.76 85.04C139.91 85.3 139.73 87 138.55 87.02C125.51 87.26 91.77 85.39 90.04 84.86C87.99 84.23 88.15 81.99 90.16 81.88C95.05 81.28 126.16 82.18 138.76 85.04Z" fill="#033A43"/>
<path d="M129.86 137.63C115.12 136.24 92.83 138.63 92.88 134.54C92.77 132.69 94.23 132.98 95.09 132.93C137.89 132.34 143.72 138.7 129.86 137.63Z" fill="#033A43"/>
<path d="M135.21 119.02C125.73 119.5 105.46 118.87 93.6501 117.76C92.7901 117.81 91.0701 117.91 90.9701 116.05C90.7701 112.62 122.74 115.52 135.3 117.49C136.21 117.63 136.14 118.98 135.22 119.02H135.21Z" fill="#033A43"/>
<path d="M143.87 55.01C144.17 55.01 144.41 55.09 144.56 55.25C144.72 55.41 144.8 55.64 144.8 55.94V63.17C144.8 64.06 144.56 64.87 144.07 65.59C143.59 66.32 142.92 66.88 142.08 67.29C141.24 67.7 140.3 67.9 139.26 67.9C138.22 67.9 137.28 67.7 136.44 67.29C135.6 66.88 134.94 66.31 134.46 65.59C133.98 64.86 133.74 64.06 133.74 63.17V55.94C133.74 55.64 133.82 55.4 133.99 55.25C134.15 55.09 134.38 55.01 134.67 55.01H136.02C136.31 55.01 136.54 55.09 136.7 55.25C136.86 55.41 136.94 55.64 136.94 55.94V63.01C136.94 63.58 137.16 64.06 137.61 64.44C138.05 64.82 138.61 65.01 139.28 65.01C139.95 64.99 140.5 64.79 140.95 64.41C141.39 64.04 141.62 63.57 141.62 63.01V55.94C141.62 55.64 141.7 55.4 141.87 55.25C142.04 55.1 142.26 55.01 142.55 55.01H143.9H143.87Z" fill="#036676"/>
<path d="M149.97 59.42C150.27 59.57 150.74 59.73 151.4 59.9C152.22 60.11 152.9 60.34 153.44 60.58C153.98 60.82 154.46 61.2 154.86 61.73C155.26 62.26 155.47 62.96 155.47 63.84C155.47 64.61 155.26 65.31 154.85 65.93C154.44 66.55 153.86 67.04 153.14 67.39C152.42 67.74 151.61 67.92 150.72 67.92C149.83 67.92 149.07 67.76 148.3 67.45C147.53 67.13 146.82 66.67 146.18 66.05C145.97 65.85 145.86 65.65 145.86 65.44C145.86 65.19 145.98 64.97 146.21 64.76L147.26 63.79C147.42 63.65 147.58 63.58 147.73 63.58C147.88 63.58 148.05 63.64 148.24 63.77C149.05 64.46 149.87 64.81 150.71 64.81C151.11 64.81 151.44 64.72 151.71 64.54C151.98 64.36 152.11 64.13 152.11 63.86C152.11 63.54 151.95 63.3 151.64 63.13C151.32 62.96 150.8 62.76 150.08 62.54C149.3 62.33 148.64 62.1 148.11 61.86C147.58 61.62 147.12 61.25 146.74 60.75C146.36 60.25 146.17 59.6 146.17 58.79C146.17 58.05 146.37 57.38 146.77 56.78C147.17 56.18 147.72 55.7 148.42 55.36C149.12 55.02 149.9 54.84 150.75 54.84H150.77C151.4 54.84 152.02 54.95 152.63 55.17C153.24 55.39 153.81 55.73 154.35 56.17C154.58 56.36 154.7 56.57 154.7 56.8C154.7 57.03 154.59 57.24 154.37 57.45L153.35 58.42C153.19 58.56 153.02 58.63 152.86 58.63C152.73 58.63 152.57 58.57 152.37 58.45C151.9 58.08 151.36 57.89 150.76 57.89C150.4 57.89 150.1 57.97 149.87 58.14C149.64 58.31 149.53 58.52 149.53 58.78C149.53 59.06 149.68 59.27 149.98 59.42H149.97Z" fill="#036676"/>
<path d="M115.24 22.66C116.01 22.66 116.61 22.87 117.02 23.28C117.43 23.7 117.64 24.29 117.64 25.06V49.92C117.64 50.7 117.43 51.29 117.02 51.7C116.61 52.11 116.01 52.32 115.24 52.32H112.03C111.25 52.32 110.66 52.11 110.25 51.7C109.84 51.29 109.63 50.69 109.63 49.92V49.24C108.8 50.31 107.83 51.13 106.7 51.71C105.58 52.29 104.36 52.57 103.05 52.57C101.23 52.57 99.6 52.06 98.14 51.05C96.68 50.03 95.54 48.64 94.71 46.88C93.88 45.12 93.47 43.14 93.47 40.95C93.47 38.76 93.88 36.78 94.71 35.02C95.54 33.26 96.68 31.87 98.14 30.85C99.6 29.83 101.23 29.33 103.05 29.33C104.36 29.33 105.57 29.62 106.7 30.19C107.82 30.77 108.8 31.59 109.63 32.66V25.08C109.63 24.31 109.84 23.71 110.25 23.3C110.66 22.88 111.26 22.68 112.03 22.68H115.24V22.66ZM108.43 44.09C109.23 43.25 109.63 42.2 109.63 40.94C109.63 39.68 109.23 38.63 108.43 37.79C107.63 36.95 106.61 36.53 105.38 36.53C104.15 36.53 103.13 36.95 102.31 37.79C101.5 38.63 101.09 39.68 101.09 40.94C101.09 42.2 101.5 43.25 102.31 44.09C103.12 44.93 104.15 45.35 105.38 45.35C106.61 45.35 107.62 44.93 108.43 44.09Z" fill="#033A43"/>
<path d="M130.11 29.88C130.48 29.88 130.78 29.99 130.99 30.2C131.2 30.41 131.31 30.71 131.31 31.08V54.33C131.31 56.79 130.5 58.71 128.89 60.08C127.27 61.46 125.02 62.15 122.14 62.15C121.07 62.15 119.8 61.98 118.33 61.63C117.74 61.47 117.45 61.1 117.45 60.51C117.45 60.35 117.46 60.23 117.49 60.15L118.25 56.82C118.38 56.2 118.72 55.9 119.25 55.9C119.33 55.9 119.48 55.93 119.69 55.98C120.09 56.09 120.48 56.14 120.85 56.14C121.62 56.14 122.23 55.93 122.65 55.5C123.08 55.07 123.29 54.48 123.29 53.74V31.09C123.29 30.72 123.4 30.42 123.61 30.21C123.82 30 124.12 29.89 124.49 29.89H130.1L130.11 29.88ZM124.24 26.13C123.4 25.29 122.98 24.25 122.98 23.02C122.98 21.79 123.4 20.84 124.24 19.99C125.08 19.15 126.1 18.73 127.31 18.73C128.52 18.73 129.5 19.15 130.36 19.99C131.21 20.83 131.64 21.84 131.64 23.02C131.64 24.2 131.21 25.25 130.36 26.11C129.5 26.97 128.49 27.39 127.31 27.39C126.13 27.39 125.09 26.97 124.24 26.13Z" fill="#033A43"/>
<path d="M154.63 46.95C154.98 47.22 155.15 47.51 155.15 47.83C155.15 48.07 155.04 48.34 154.83 48.63C153.81 49.91 152.53 50.92 150.98 51.64C149.43 52.36 147.84 52.72 146.21 52.72H146.17C144.03 52.72 142.1 52.21 140.38 51.2C138.66 50.18 137.3 48.79 136.31 47.03C135.32 45.27 134.83 43.29 134.83 41.1C134.83 38.91 135.32 36.93 136.31 35.17C137.3 33.41 138.65 32.02 140.38 31C142.1 29.98 144.03 29.48 146.17 29.48H146.21C147.84 29.48 149.43 29.84 150.98 30.56C152.53 31.28 153.81 32.28 154.83 33.57C155.04 33.86 155.15 34.13 155.15 34.37C155.15 34.69 154.98 34.98 154.63 35.25L151.22 37.78C150.93 37.99 150.65 38.1 150.38 38.1C150.09 38.1 149.81 38.01 149.54 37.82C148.76 37.34 147.92 37.1 147.02 37.1C145.84 37.1 144.86 37.48 144.06 38.24C143.26 39 142.86 39.96 142.86 41.11C142.86 42.26 143.26 43.21 144.06 43.98C144.86 44.74 145.85 45.12 147.02 45.12C147.96 45.12 148.8 44.88 149.54 44.4C149.81 44.21 150.09 44.12 150.38 44.12C150.65 44.12 150.93 44.23 151.22 44.44L154.63 46.97V46.95Z" fill="#033A43"/>
<path d="M52.8 61.29C53.16 60.08 53.3 58.82 53.05 57.59C52.74 56.01 51.78 54.67 50.68 53.53C48.48 51.24 44.91 50.36 41.9 51.38C40.1 51.99 38.57 53.17 37.04 54.3C36.84 54.45 36.61 54.61 36.35 54.59C35.96 54.57 35.71 54.17 35.54 53.81C34.86 52.35 34.37 50.8 33.64 49.36C32.26 46.63 29.97 44.3 27.1 43.26C24.23 42.22 20.79 42.61 18.45 44.57C15.6 46.96 14.87 51.06 15.08 54.77C15.36 59.74 17.01 64.57 19.45 68.91C21.89 73.24 25.12 77.1 28.66 80.6C28.82 80.76 29 80.93 29.22 80.98C29.51 81.05 29.81 80.91 30.08 80.76C33.73 78.82 37.26 76.64 40.63 74.26C44.01 71.88 47.59 69.37 50.16 66.1C51.23 64.73 52.25 63.07 52.77 61.31L52.8 61.29Z" fill="#82D0C8"/>
<path d="M197.161 52.6622L202.221 51.2122C203.201 50.9322 203.751 49.8822 203.431 48.9122L201.241 42.3822C200.921 41.4122 201.471 40.3622 202.451 40.0822L208.821 38.2522C209.811 37.9722 210.361 36.9222 210.031 35.9522L208.841 32.4122C208.531 31.5022 207.561 30.9922 206.641 31.2622L199.961 33.1922C199.041 33.4622 198.061 32.9522 197.761 32.0322L195.481 25.2222C195.171 24.3122 194.201 23.8022 193.281 24.0722L189.871 25.0622C188.891 25.3422 188.341 26.3922 188.671 27.3622L190.861 33.8822C191.191 34.8522 190.641 35.8922 189.661 36.1822L183.301 38.0222C182.321 38.3022 181.771 39.3522 182.091 40.3222L183.271 43.8422C183.581 44.7522 184.551 45.2622 185.471 45.0022L192.151 43.0722C193.071 42.8022 194.051 43.3122 194.351 44.2322L197.181 52.6722L197.161 52.6622Z" fill="#F3B12E"/>
<path d="M44 104.32C45.64 104.49 49.9 104.46 50.2 106.63C50.57 109.26 46.46 110.1 44.63 110.17C40.97 110.32 37.4 109.25 33.92 108.54C31.98 107.93 29.92 107.8 27.92 108.16C25.28 108.95 24.82 112.38 24.14 114.52C23.3 117.25 21.07 119.33 18.28 119.98C14.11 120.78 9.82001 120.64 5.70001 119.58C4.67001 119.35 3.63001 119.11 2.63001 118.79C1.63001 118.47 1.10001 118.5 0.990009 117.41C0.910009 116.55 1.60001 114.88 2.16001 114.23C3.19001 113.03 4.39001 113.41 5.73001 113.76C8.73001 114.54 13.59 116.16 16.7 114.37C20.23 112.33 19.45 107.02 22.55 104.53C25.65 102.04 30.69 102.94 43.98 104.33L44 104.32Z" fill="#81A046"/>
<path d="M39.35 124.69C40.93 124.15 44.77 122.34 45.95 124.19C47.38 126.43 44.01 128.9 42.38 129.74C39.11 131.42 35.43 131.93 31.97 132.74C29.95 133 28.03 133.74 26.36 134.91C24.31 136.74 25.31 140.04 25.59 142.26C25.97 145.1 24.81 147.92 22.55 149.68C19.09 152.15 15.13 153.82 10.96 154.58C9.91997 154.8 8.87997 154.97 7.84997 155.15C6.64997 155.36 6.31997 155.56 5.80997 154.49C5.38997 153.6 5.22997 151.92 5.57997 150.98C6.08997 149.63 7.30997 149.5 8.56997 149.28C11.63 148.73 16.72 148.18 18.79 145.24C21.14 141.92 18.21 137.42 19.98 133.85C21.74 130.31 26.72 129.01 39.35 124.71V124.69Z" fill="#81A046"/>
<path d="M189.457 106.191C189.417 106.081 189.377 105.981 189.327 105.871C188.657 104.221 187.697 102.641 186.257 101.591C183.707 99.741 179.587 99.491 176.777 100.911C172.547 103.051 173.867 109.391 176.017 112.621C177.747 115.221 180.777 117.011 183.897 116.921C185.727 116.871 187.577 116.151 188.767 114.771C190.737 112.491 190.527 109.041 189.447 106.201L189.457 106.191Z" fill="#DA6A9E"/>
</svg>
