<svg width="204" height="166" viewBox="0 0 204 166" fill="none" xmlns="http://www.w3.org/2000/svg">
<path d="M78.22 89.38C74.09 89.38 70.73 86.03 70.73 81.89V73.59C70.73 69.45 74.08 66.08 78.22 66.08C88.45 66.08 94.85 55.03 89.78 46.16C85.96 39.47 77.95 37.31 71.37 41.32C67.2 43.86 64.9 48.23 64.9 52.76C64.89 58.52 58.64 62.12 53.65 59.22C51.35 57.88 49.92 55.42 49.92 52.76C49.9 30.97 73.48 17.33 92.36 28.2C111.24 39.08 111.27 66.32 92.4 77.23C90.8 78.15 89.12 78.92 87.37 79.52C86.36 79.86 85.68 80.81 85.68 81.88C85.68 86.01 82.34 89.37 78.21 89.38H78.22Z" fill="#DA6A9E"/>
<path d="M69.2 102.25C66.97 109.27 73.17 116.08 80.37 114.5C83.72 113.76 86.43 111.29 87.45 108.02C89.68 101 83.48 94.19 76.28 95.77C72.93 96.5 70.22 98.98 69.2 102.25Z" fill="#DA6A9E"/>
<path d="M65.14 104.88C64.95 106.59 65.97 109.03 66.53 110.1C67.6 112.17 69.28 113.94 71.31 115.08C75.03 117.17 79.45 117.12 83.13 114.94C86.81 112.76 88.97 108.91 88.91 104.63C88.88 101.55 87.62 98.66 85.51 96.52C84.91 95.91 84 95.6 83.2 95.9C82.32 96.23 82.08 97.07 82.08 97.88C82.08 98.8 82.41 99.68 82.96 100.41C83.86 101.63 84.39 103.11 84.41 104.68C84.42 106 84.1 107.25 83.48 108.34C82.87 109.45 81.97 110.38 80.82 111.05C78.55 112.41 75.81 112.44 73.49 111.14C71.8 110.2 70.57 108.63 70.03 106.81C69.99 106.67 69.97 106.54 69.95 106.39C69.81 105.14 69.43 103.5 68.07 103.12C67.39 102.93 66.29 103.04 65.74 103.52C65.37 103.85 65.18 104.32 65.12 104.87L65.14 104.88ZM66.21 104.41C66.45 104.55 66.73 104.71 67.04 104.89L66.21 104.41Z" fill="#033A43"/>
<path d="M67.37 107.95L66.43 107.74C66.7 107.8 67.02 107.87 67.37 107.95Z" fill="#033A43"/>
<path d="M64.63 127.26C64.63 127.26 64.63 127.27 64.62 127.27C64.6 127.3 64.57 127.34 64.56 127.38L64.59 127.34L64.61 127.3L64.66 127.23C64.66 127.23 64.64 127.25 64.63 127.26ZM47.39 138.33C47.39 138.33 47.38 138.35 47.37 138.37V138.39L47.83 138.58C47.89 138.6 47.9 138.6 47.91 138.6L47.52 138.16C47.47 138.2 47.42 138.26 47.39 138.33ZM47.36 138.43V138.41V138.39C47.36 138.39 47.34 138.44 47.34 138.47V138.43H47.36ZM47.32 138.62C47.32 138.62 47.31 138.63 47.31 138.64V138.67C47.31 138.74 47.32 138.81 47.34 138.89V138.47C47.34 138.47 47.33 138.49 47.34 138.51C47.32 138.54 47.32 138.58 47.32 138.62Z" fill="#010101"/>
<path d="M47.98 138.68H48L48.06 138.7L48.26 138.79L47.98 138.68Z" fill="#010101"/>
<path d="M64.61 127.3L64.59 127.34L64.56 127.38C64.56 127.38 64.58 127.32 64.61 127.3V127.27L64.63 127.26C64.64 127.26 64.65 127.24 64.66 127.23L64.61 127.3Z" fill="#010101"/>
<path d="M47.32 138.62C47.32 138.62 47.32 138.54 47.34 138.51V138.89C47.32 138.81 47.31 138.74 47.31 138.67V138.64L47.32 138.62Z" fill="#020202"/>
<path d="M47.35 138.47C47.35 138.47 47.36 138.41 47.37 138.39V138.41C47.37 138.41 47.37 138.42 47.37 138.43V138.47H47.35Z" fill="#020202"/>
<path d="M48.63 138.55C48.63 138.55 48.61 138.63 48.59 138.67C48.59 138.67 48.58 138.72 48.57 138.73L48.56 138.76C48.56 138.79 48.56 138.81 48.56 138.83L48.54 138.88H48.52C48.52 138.89 48.52 138.9 48.5 138.91C48.48 138.96 48.45 139.01 48.41 139.04L48.48 138.87L48.44 138.85L48.31 138.8C48.31 138.8 48.29 138.8 48.28 138.8C48.3 138.79 48.34 138.78 48.4 138.74C48.42 138.72 48.44 138.71 48.46 138.7V138.67L48.49 138.66L48.61 138.58L48.64 138.56L48.63 138.55Z" fill="#020202"/>
<path d="M125.01 118.99C124.34 119.22 123.65 119.33 122.97 119.33C120.36 119.33 117.93 117.71 117.02 115.13C116.93 114.89 116.87 114.64 116.81 114.39C116.65 113.81 116.57 113.24 116.57 112.69C116.57 111.28 117.1 109.98 118.13 108.94C119.81 107.25 122.55 106.53 124.95 107.18C126.93 107.72 128.36 109.13 128.88 111.05C129.97 114.3 128.25 117.85 125.01 118.99Z" fill="#F3B12E"/>
<path d="M117.25 39.7C117.25 39.95 117.25 40.2 117.25 40.45C117.28 40.42 117.3 40.38 117.32 40.34C117.36 40.24 117.37 40.14 117.4 40.04C117.39 39.94 117.33 39.82 117.24 39.7H117.25Z" fill="#F3B12E"/>
<path d="M119.86 56.28C119.87 56.38 119.86 56.48 119.81 56.57C119.81 56.45 119.83 56.32 119.84 56.19C119.85 56.22 119.85 56.25 119.86 56.28Z" fill="#F3B12E"/>
<path d="M128.05 62.53C128.16 54.47 128.27 46.41 128.38 38.34C128.43 34.85 127.2 27.03 121.96 28.6C118.51 29.63 117.16 35.97 116.78 38.99C114.86 54.23 114.74 69.55 115.73 84.86C115.96 88.4 115.92 101.06 122.83 98.12C126.77 96.44 127.68 89.92 127.73 86.24C127.84 78.34 127.94 70.43 128.05 62.53ZM119.81 56.57C119.81 56.45 119.83 56.32 119.84 56.19C119.85 56.22 119.85 56.25 119.86 56.28C119.87 56.38 119.86 56.48 119.81 56.57Z" fill="#F3B12E"/>
<path d="M95.26 151.94C86.29 151.55 86.52 164.82 94.73 165.21C103.51 165.61 104.19 152.32 95.26 151.94Z" fill="#64A03D"/>
<path d="M14.12 83.38C11.6 85.19 7.68003 76.08 6.73003 80.11C6.24003 82.35 8.08003 86.2 5.98003 87.72C2.81003 89.93 -5.15997 93.65 4.98003 92.99C7.86003 92.78 7.71003 94.06 7.72003 95.14C7.91003 99.65 8.33003 100.71 8.71003 101.1C10.73 102.46 11.7 92.34 14.59 92.8C20.99 93.63 21.54 93.95 22.17 93.16C22.8 92.37 20.39 90.75 18.39 89.12C15.53 86.61 23.21 77.06 14.12 83.39V83.38Z" fill="#82D0C8"/>
<path d="M202.36 28.12L193.98 23.25L194.12 13.38C194.12 12.16 192.63 10.95 191.15 12.16C183.72 18.92 184.26 18.51 183.72 18.92L174.53 15.95C173.04 15.41 171.83 17.17 172.37 18.38L176.29 27.3L170.48 35.41C169.67 36.36 170.34 38.38 172.1 38.11L181.83 36.89C185.34 41.76 184.13 40 187.51 44.73C188.46 45.95 190.21 45.54 190.62 44.05L192.78 34.45L202.11 31.21C202.79 30.94 203.33 30.4 203.33 29.72C203.33 29.04 202.92 28.37 202.38 28.1L202.36 28.12Z" fill="#82D0C8"/>
<mask id="mask0_59_31" style="mask-type:luminance" maskUnits="userSpaceOnUse" x="3" y="0" width="17" height="17">
<path d="M19.35 0.0899963H3.06V16.9H19.35V0.0899963Z" fill="white"/>
</mask>
<g mask="url(#mask0_59_31)">
<path d="M18.5 6.18998C18.46 6.07998 18.42 5.97998 18.37 5.86998C17.7 4.21998 16.74 2.63998 15.3 1.58998C12.76 -0.260016 8.63998 -0.510016 5.82998 0.909984C1.59998 3.04998 2.91998 9.38998 5.06998 12.62C6.79998 15.22 9.82998 17.01 12.95 16.92C14.78 16.87 16.63 16.15 17.82 14.77C19.79 12.49 19.58 9.03998 18.5 6.19998V6.18998Z" fill="#FFB949"/>
</g>
<path d="M183.501 136.35L189.461 152.85C189.721 153.58 190.801 153.37 190.771 152.59L189.661 124.27C189.641 123.74 189.051 123.44 188.611 123.73L178.531 130.39C178.181 130.62 177.701 130.48 177.541 130.09L171.301 115.41C170.991 114.68 169.881 115 170.011 115.78L174.161 141.27C174.241 141.75 174.791 141.99 175.191 141.73L183.501 136.34V136.35Z" fill="#81A046"/>
<path d="M107.9 53.54C107.9 57.09 107.31 60.52 106.19 63.72C105.35 66.14 101.71 65.23 102.05 62.7C102.22 61.39 102.53 60.32 102.53 60.32C103.1 58.15 103.4 55.88 103.4 53.55C103.4 49.65 102.48 45.58 100.6 42.07C98.72 38.56 94.77 35.76 94.05 31.61C93.73 29.75 94.89 28.6 96.55 29.88C99.5 32.17 102.26 35.42 104.08 38.69C106.6 43.21 107.89 48.36 107.89 53.53L107.9 53.54Z" fill="#033A43"/>
<path d="M67.37 107.95L66.43 107.74C66.7 107.8 67.02 107.87 67.37 107.95Z" fill="#033A43"/>
<path d="M90.81 61.37C88 66.25 82.96 69.16 77.33 69.16C74.44 69.17 72.08 71.53 72.09 74.42V82.73C72.09 84.27 72.8 85.75 73.99 86.73C75.27 87.79 78.53 88.81 77.28 91.12C76.81 92 75.73 92.38 74.77 92.12C70.64 90.98 67.59 87.21 67.59 82.73V74.42C67.58 69.05 71.95 64.67 77.32 64.66C81.33 64.66 84.91 62.59 86.91 59.13C88.91 55.66 88.91 51.52 86.91 48.06C85.91 46.33 84.51 44.95 82.86 44C81.22 43.05 79.32 42.53 77.32 42.53C73.32 42.53 69.74 44.6 67.74 48.06C66.77 49.74 66.26 51.66 66.26 53.59C66.26 57.12 64.42 60.27 61.37 62.02C58.32 63.78 54.68 63.77 51.63 62C48.65 60.27 46.79 57.05 46.78 53.6C46.77 44.5 50.64 36.18 57.36 30.45C58.05 29.86 59.1 29.79 59.79 30.37C61.64 31.92 58.35 35.72 58.35 35.72C53.84 40.47 51.28 46.77 51.29 53.59C51.29 55.45 52.29 57.18 53.9 58.11C55.54 59.06 57.5 59.07 59.14 58.12C60.78 57.18 61.76 55.48 61.77 53.59C61.77 50.87 62.49 48.18 63.85 45.82C65.25 43.38 67.22 41.43 69.53 40.1C71.85 38.76 74.51 38.03 77.33 38.03C82.96 38.03 88 40.94 90.81 45.81C93.63 50.68 93.63 56.5 90.82 61.37H90.81Z" fill="#033A43"/>
<path d="M6.72002 131.77L9.09002 133.19C9.55002 133.47 10.15 133.3 10.4 132.83L12.12 129.66C12.38 129.19 12.97 129.02 13.43 129.3L16.41 131.09C16.87 131.37 17.47 131.2 17.72 130.73L18.65 129.01C18.89 128.57 18.74 128.01 18.3 127.75L15.17 125.88C14.74 125.62 14.58 125.07 14.82 124.62L16.61 121.31C16.85 120.87 16.7 120.31 16.26 120.05L14.66 119.1C14.2 118.83 13.6 118.99 13.35 119.46L11.64 122.63C11.39 123.1 10.79 123.27 10.33 122.99L7.35002 121.21C6.89002 120.94 6.29002 121.1 6.04002 121.57L5.11002 123.28C4.87002 123.72 5.02002 124.28 5.46002 124.54L8.59002 126.41C9.02002 126.67 9.18002 127.22 8.94002 127.67L6.72002 131.77Z" fill="#FCD882"/>
<g clip-path="url(#clip0_59_31)">
<path d="M47.88 141.14H47.9L47.96 141.16L48.16 141.25L47.88 141.14Z" fill="#010101"/>
<path d="M64.51 129.76L64.49 129.8L64.46 129.84C64.46 129.84 64.48 129.78 64.51 129.76V129.73L64.53 129.72C64.54 129.72 64.55 129.7 64.56 129.69L64.51 129.76Z" fill="#010101"/>
<path d="M48.98 142.71C48.62 142.71 48.27 142.61 47.95 142.42C47.32 142.04 46.95 141.34 46.98 140.61C47.11 137.94 47.5 135.43 47.88 133C48.49 129.08 49.06 125.38 48.55 121.27C47.17 110.17 41.19 101.3 34.86 91.91L33.65 90.12C30.48 85.43 26.81 79.95 23.58 74.38C20.96 69.82 17.71 63.75 15.73 57.22C14.7 53.8 14.15 50.7 14.03 47.72C13.87 44.3 14.37 41.04 15.5 38.04C21.65 21.77 43.59 15.99 52.74 14.26C74.08 10.23 97.87 11.62 119.74 18.17C125.98 20.04 131.89 22.3 137.3 24.88C143.3 27.74 148.7 31.07 153.37 34.77C164.35 43.47 170.39 53.76 171.34 65.36C171.68 69.53 171.36 73.86 170.39 78.25C169.26 83.37 167.26 88.49 164.46 93.49C154.87 110.61 139.26 123.96 121.65 130.11C111.16 133.78 99.48 134.66 87.88 132.67C82.62 131.77 77.26 130.31 71.48 128.2L70.61 127.88C65.87 126.13 63.68 125.5 61.38 129.04C60.88 129.81 60.4 130.58 59.92 131.35C57.39 135.39 54.78 139.58 50 142.42C49.68 142.61 49.33 142.7 48.98 142.7V142.71ZM77.58 16C69.36 16 61.25 16.73 53.48 18.19C45 19.79 24.68 25.07 19.24 39.46C18.3 41.94 17.89 44.66 18.03 47.55C18.13 50.2 18.63 52.97 19.56 56.05C21.42 62.2 24.54 68 27.05 72.37C30.21 77.82 33.83 83.23 36.97 87.87L38.18 89.66C44.5 99.03 51.03 108.72 52.53 120.77C53.11 125.43 52.46 129.58 51.84 133.6C51.71 134.47 51.57 135.35 51.45 136.23C53.41 134.23 54.91 131.85 56.55 129.22C57.04 128.44 57.53 127.65 58.05 126.85C62.19 120.49 67.41 122.42 72.02 124.12L72.87 124.43C78.42 126.45 83.56 127.85 88.58 128.71C99.51 130.59 110.5 129.75 120.35 126.31C137.06 120.47 151.87 107.79 160.99 91.51C163.6 86.86 165.45 82.1 166.5 77.36C167.39 73.36 167.68 69.43 167.37 65.66C166.52 55.21 160.98 45.86 150.9 37.88C146.47 34.37 141.32 31.2 135.59 28.47C130.36 25.97 124.65 23.79 118.61 21.98C105.32 18 91.3 15.98 77.59 15.98L77.58 16Z" fill="#033A43"/>
</g>
<defs>
<clipPath id="clip0_59_31">
<rect width="157.47" height="130.71" fill="white" transform="translate(14 12)"/>
</clipPath>
</defs>
</svg>
