<svg width="219" height="161" viewBox="0 0 219 161" fill="none" xmlns="http://www.w3.org/2000/svg">
<g clip-path="url(#clip0_59_31)">
<path d="M105.865 101.805C102.926 123.73 84.6845 124.741 65.3732 125.802C60.5165 126.07 56.874 127.101 53.7518 128.589C50.6296 130.076 48.0085 132.02 45.2044 134.102C40.2127 137.821 34.5466 142.025 24.3995 144.931C24.2357 144.98 24.0622 145 23.8984 145C23.3299 145 22.7902 144.742 22.424 144.276C22.106 143.869 21.9615 143.364 22.0097 142.848C22.0675 142.323 22.318 141.866 22.7035 141.539C28.9478 136.353 38.2662 125.971 36.7244 120.18C36.2522 118.415 34.9127 116.005 33.3709 113.228C29.8151 106.803 24.9295 98.017 27.2615 90.0344C28.6009 85.4333 32.2338 81.566 38.0446 78.5316C54.7251 69.8451 83.345 74.6247 96.8359 84.521C103.591 89.4791 106.713 95.4487 105.865 101.805Z" fill="#FBF2DB"/>
</g>
<path d="M170.92 90.73C168.52 83.8 168.89 82.74 174.1 81.57C175.63 81.37 177.17 81.31 178.71 81.4C177.95 68.17 165.79 59.94 156.37 63.91C150.94 65.99 147.53 71.53 147.99 77.5C147.99 77.5 135.87 72.09 127.63 82.76C119.04 93.86 127.56 109.7 140.01 113.23C153.44 116.96 164.23 115.12 170.3 115.14C176.38 115.17 179.94 114.2 179.94 108.95C179.93 106.99 179.71 103.59 179.37 99.68C175.67 98.43 172.6 95.58 170.91 90.74L170.92 90.73Z" fill="#82D0C8"/>
<path d="M206.09 142.24C214.66 130.43 213.89 99.68 209.17 91.84C208.87 91.35 209.25 90.72 209.82 90.73C211.9 90.74 213.97 90.53 216 90.1C218.11 89.39 218.48 86.29 215.7 86.4C212.92 86.51 204.54 86.51 201.28 85.27C195.38 83 186.84 78.38 180.71 77.24C177.82 58.5 152.75 56.06 147.74 72.06C147.32 73.4 146.02 74.25 144.62 74.15C138.61 73.7 133.86 74.81 130.32 76.94C129.36 77.46 128.89 78.11 128.71 78.78C128.15 80.87 130.73 82.47 132.48 81.2C135.38 79.08 138.93 78.1 142.5 78.04C144.82 78.01 146.92 78.71 149.18 78.91C151.62 79.13 151.38 77.07 151.53 75.32C151.68 73.61 152.12 72.18 153.14 70.75C154.9 68.27 157.74 66.7 160.7 66.14C168.25 64.69 174.51 69.85 176.2 77.04C160.26 78.52 165.17 99.25 178.5 101.97C177.81 109.63 182.38 113.5 170.76 113.34C161.1 113.23 153.15 114.39 140.25 110.63C140.25 110.63 140.25 110.66 140.24 110.66C137.42 109.52 135.07 108.13 133.15 106.55C131.04 104.82 128.28 107.71 130.14 109.71L130.16 109.73C134.96 114.31 141.88 117.4 150.7 117.27C153.73 139.62 182.6 142.83 199.47 147.65C206.19 149.58 216.73 151.32 217.05 148.77C217.32 146.62 212.3 146.12 207.11 145.01C205.84 144.74 205.32 143.26 206.08 142.21L206.09 142.24ZM199.25 142.87C199.02 142.92 198.74 142.93 198.39 142.93C197.24 142.92 195.79 142.21 194.67 141.91C192.2 141.25 189.71 140.63 187.24 139.99C178.22 137.64 167.87 135.18 160.93 128.52C158.1 125.8 156.16 122.36 155.43 118.51C155.36 118.12 155.65 117.75 156.05 117.74C167.51 117.33 185.84 122.58 182.99 104.16C182.95 103.91 183.19 103.71 183.43 103.79C184.46 104.17 185.51 104.47 186.59 104.71C187.8 104.7 188.78 103.71 188.77 102.49C188.77 101.56 188.17 100.74 187.3 100.44C181.58 98.67 171.94 95.23 170.93 90.73C168.56 71.24 193.45 88.11 202.45 90.09C204.58 92.36 210.74 101.11 207.77 123.76C206.88 129.92 205.07 136.17 201.18 141.14C200.33 142.22 200.07 142.71 199.27 142.87H199.25Z" fill="#033A43"/>
<path d="M0.430005 57.07C-1.01999 55.36 3.19001 51.14 2.99001 49.59C2.75001 47.82 -0.929995 45.12 0.220005 43.46C1.37001 41.8 5.96 43.62 8.25 42.45C9.66 41.74 11.73 36.8 13.73 37.22C16.59 37.81 16.7 43.93 17.65 44.53C18.76 45.24 24.55 45.03 24.82 47.25C25.15 50 18.41 51.8 17.65 52.93C16.69 54.38 17.86 61.09 14.71 61.4C12.09 61.66 9.23001 53.86 7.56001 54.02C6.33001 54.09 1.74001 58.61 0.440005 57.06H0.430005V57.07Z" fill="#F3B12E"/>
<path d="M36.35 63.25C33.12 61.82 39.1 54.05 38.89 52.52C38.65 50.74 32.91 48.96 34.8 46.12C36.27 43.9 41.87 45.85 44.12 44.73C45.54 44.02 48.19 36.09 51.3 36.23C54.41 36.37 52.58 44.21 53.49 44.8C54.61 45.51 61.58 43.72 61.87 45.92C62.2 48.67 57.49 50.79 56.74 51.91C55.78 53.34 58.51 61.71 55.34 62.07C52.72 62.33 48.38 56.11 46.65 56.25C45.46 56.33 38.38 64.16 36.34 63.24L36.35 63.25Z" fill="#F3B12E"/>
<path d="M75.11 58.42C71.6 58.09 75.94 48.31 75.26 46.92C74.46 45.31 69.36 45.21 69.55 42.64C69.66 40.83 76.48 39.11 78.28 37.28C79.39 36.14 80.34 28.73 83.36 27.88C86.38 27.03 87.41 34.89 88.51 35.17C89.79 35.48 96.04 32 97.02 34.03C98.21 36.53 93.05 41.59 92.7 42.89C92.25 44.56 99.16 48.33 98.01 49.86C95.36 53.34 86.78 48.25 85.19 48.93C84.01 49.39 77.34 58.64 75.11 58.42Z" fill="#F3B12E"/>
<path d="M110.48 49.15C106.54 48.78 111.41 37.79 110.64 36.23C109.74 34.43 104.01 34.31 104.22 31.42C104.34 29.38 112.01 27.46 114.03 25.39C115.27 24.11 116.35 15.78 119.75 14.83C123.15 13.88 124.31 22.71 125.54 23.02C126.98 23.37 134.01 19.45 135.1 21.73C136.43 24.54 130.64 30.23 130.25 31.69C129.74 33.56 137.52 37.8 136.22 39.52C133.24 43.43 123.59 37.71 121.81 38.47C120.49 38.98 112.99 49.38 110.48 49.14V49.15Z" fill="#F3B12E"/>
<path d="M148.25 39C143.78 38.58 149.3 26.12 148.44 24.35C147.42 22.3 140.92 22.18 141.16 18.9C141.3 16.59 149.99 14.41 152.29 12.06C153.7 10.61 154.92 1.15998 158.77 0.0799783C162.63 -1.00002 163.94 9.01998 165.33 9.36998C166.96 9.76998 174.93 5.32998 176.17 7.90998C177.68 11.09 171.11 17.54 170.67 19.2C170.09 21.32 178.91 26.13 177.44 28.08C174.06 32.52 163.12 26.02 161.1 26.89C159.6 27.47 151.1 39.26 148.25 38.99V39Z" fill="#F3B12E"/>
<path d="M193.25 52.91C195.04 51.12 198.21 48.53 200.72 47.2C202.88 46.05 204.04 46.75 204.64 47.53C205.03 48.05 205.18 48.67 205.09 49.33C204.8 51.29 202.23 53.29 199.16 55.52C198.8 55.78 198.48 56.01 198.23 56.21C197.47 56.79 196.68 57.35 195.9 57.89C194.07 59.16 192.82 58.36 192.24 57.77C190.83 56.34 191.76 54.77 192.07 54.26C192.1 54.2 192.13 54.16 192.16 54.11C192.41 53.79 192.78 53.37 193.25 52.91Z" fill="#82D0C8"/>
<path d="M214.29 61.7C210.85 62.48 207.82 63.47 205.01 64.74C204.52 64.96 204.11 65.24 203.79 65.57C202.99 66.37 202.71 67.42 203.11 68.38C203.93 70.32 205.88 69.98 206.54 69.86C209.63 69.32 212.78 68.45 215.94 67.29C216.79 66.98 217.5 66.48 218 65.83C218.04 65.78 218.06 65.74 218.09 65.7C218.7 64.74 218.71 63.67 218.12 62.84C217.39 61.8 215.85 61.35 214.29 61.69V61.7ZM209.7 66.11C210.89 65.69 212.14 65.33 213.46 64.99C212.2 65.41 210.94 65.78 209.7 66.11Z" fill="#82D0C8"/>
<path d="M180.62 47.94C180.41 47.08 180.4 46.22 180.57 45.37C181.34 41.6 182.23 38.53 183.38 35.74C183.6 35.21 183.87 34.81 184.16 34.52C184.98 33.7 185.96 33.73 186.43 33.81C187.73 34.02 188.49 34.94 188.71 36.53C188.92 38.06 188.08 40.99 186.77 45.28C186.48 46.25 186.21 47.14 186.01 47.87C185.62 49.25 184.54 50.13 183.26 50.11C182.01 50.09 180.92 49.2 180.62 47.95V47.94Z" fill="#82D0C8"/>
<path d="M127.82 146.48C118.67 146.08 118.9 159.62 127.28 160.02C136.24 160.43 136.94 146.87 127.82 146.48Z" fill="#DA6A9E"/>
<path d="M44.86 4.48002C36.99 4.14002 37.19 15.78 44.4 16.12C52.1 16.47 52.7 4.81002 44.86 4.48002Z" fill="#81A046"/>
<path d="M99.08 84.21C85.08 74.23 55.38 69.41 38.07 78.17C32.04 81.23 28.27 85.13 26.88 89.77C24.46 97.82 29.53 106.68 33.22 113.16C34.82 115.96 36.21 118.39 36.7 120.17C38.3 126.01 28.63 136.48 22.15 141.71C21.75 142.04 21.49 142.5 21.43 143.03C21.38 143.55 21.53 144.06 21.86 144.47C22.24 144.94 22.8 145.2 23.39 145.2C23.56 145.2 23.74 145.18 23.91 145.13C34.44 142.2 40.32 137.96 45.5 134.21C48.41 132.11 51.13 130.15 54.37 128.65C57.61 127.15 61.39 126.11 66.43 125.84C86.47 124.77 105.4 123.75 108.45 101.64C109.33 95.23 106.09 89.21 99.08 84.21ZM104.57 101.1C101.97 119.97 86.44 120.81 66.77 121.89C54.94 122.53 49.58 126.42 43.37 130.92C40.01 133.36 36.55 135.87 31.72 138.11C37.12 132.37 42.14 125.11 40.5 119.13C39.81 116.61 38.12 113.63 36.32 110.49C32.79 104.27 28.78 97.23 30.66 90.97C31.77 87.29 34.78 84.25 39.85 81.68C45.69 78.73 53.05 77.44 60.69 77.44C74.14 77.44 88.46 81.44 96.81 87.4C100.82 90.26 105.42 94.96 104.57 101.1Z" fill="#033A43"/>
<path d="M96.34 97.19C96.34 97.71 96.13 98.2 95.75 98.57C95.38 98.94 94.89 99.14 94.37 99.14H94.34C94.21 99.14 93.9 99.09 91.04 98.62C86.14 97.81 73.53 95.72 40.9 90.39C39.84 90.21 39.11 89.2 39.28 88.13C39.48 87.03 40.49 86.32 41.55 86.51L94.68 95.23C95.64 95.38 96.34 96.2 96.34 97.19Z" fill="#033A43"/>
<path d="M87.5 109.38C87.5 110.46 86.63 111.34 85.55 111.35H85.52C85.29 111.35 84.48 111.18 73 108.75L46.25 103.1C45.23 102.85 44.58 101.86 44.76 100.85C44.85 100.33 45.14 99.88 45.57 99.58C46 99.28 46.52 99.16 47.04 99.25L85.93 107.46C86.84 107.64 87.5 108.45 87.5 109.38Z" fill="#033A43"/>
<defs>
<clipPath id="clip0_59_31">
<rect width="84" height="71" fill="white" transform="translate(22 74)"/>
</clipPath>
</defs>
</svg>
