<svg width="211" height="163" viewBox="0 0 211 163" fill="none" xmlns="http://www.w3.org/2000/svg">
<path d="M25.79 34.47C25.42 34.6 25.01 34.56 24.68 34.35C0.300031 21.49 13.31 0.92001 26.79 14.18C43.49 2.05001 52.37 27.13 25.79 34.47Z" fill="#DA6A9E"/>
<path d="M165.18 162.34C164.84 162.34 164.52 162.18 164.3 161.91C148.12 144.18 164.86 131.16 171.99 146.01C189.25 141 189.13 164.17 165.18 162.34Z" fill="#82D0C8"/>
<path fill-rule="evenodd" clip-rule="evenodd" d="M170.459 21.754C170.459 21.754 158.016 9.44749 166.687 4.49118C175.358 -0.465129 183.07 5.35095 179.719 18.7532C179.719 18.7532 186.159 1.43985 195.403 10.6023C205.488 20.6076 182.11 25.6567 185.082 26.2045C190.857 27.275 202.701 31.9279 198.113 38.2582C189.442 50.2528 180.603 31.6497 180.603 31.6497C180.603 31.6497 183.448 48.7777 172.69 47.6903C161.931 46.603 168.001 33.5294 170.038 31.2199C170.038 31.2199 151.905 37.4743 152.149 26.744C152.435 13.9992 162.941 17.2528 170.459 21.754Z" fill="#5BC6A7"/>
<path fill-rule="evenodd" clip-rule="evenodd" d="M178.499 18.744C182.039 18.6208 185.016 21.3236 185.142 24.7903C185.201 26.384 184.638 27.9449 183.561 29.1443C180.139 32.4632 174.765 33.8433 171.679 31.7402C168.593 29.6372 166.045 19.9188 178.499 18.744Z" fill="white"/>
<path d="M200.71 33.2745C199.218 29.5231 194.098 27.0023 189.961 25.5934C193.971 23.7517 199.023 20.9424 199.829 16.5968C200.176 13.7706 199.04 10.9697 196.836 9.17889C191.902 4.29017 186.62 5.10496 182.271 10.4944C181.229 1.51481 173.548 -1.73585 165.714 2.7285C160.272 5.84336 160.975 11.462 164.205 16.7921C155.694 14.0676 150.353 17.5305 150.149 26.7223C149.963 34.8616 158.017 35.965 166.249 34.1996C162.111 43.9431 166.147 49.74 173.624 49.74C179.72 49.74 182.331 44.673 182.772 38.5367C188.308 45.4963 194.683 46.4808 199.761 39.4363C201.168 37.7134 201.533 35.3539 200.719 33.283L200.71 33.2745ZM189.291 9.7136C191.19 9.47595 193.081 10.2653 194.242 11.793C195.539 12.7606 196.268 14.3053 196.209 15.9263C195.607 19.177 189.266 21.9099 186.239 23.2255C186.129 22.6738 185.959 22.1391 185.747 21.6214C184.984 19.9918 183.687 18.6678 182.076 17.8784C183.399 15.0521 186.137 10.4096 189.291 9.7136ZM181.915 28.3434C179.55 31.1187 175.693 32.1117 172.285 30.8217C170.801 29.3788 170.191 27.257 170.682 25.2455C171.513 22.0542 175.277 21.0272 178.287 20.7387C180.856 20.7217 182.95 22.7926 182.975 25.3643C182.975 26.4507 182.611 27.5116 181.924 28.3518L181.915 28.3434ZM167.52 5.91126C174.565 1.88825 180.491 5.93672 178.202 17.0806C175.557 17.174 172.988 17.9633 170.75 19.3807C168.521 16.9024 164.943 12.124 165.392 8.75452C165.587 7.51537 166.384 6.45445 167.52 5.91975V5.91126ZM155.168 30.1342C154.151 29.3449 153.634 28.0633 153.82 26.7902C153.897 23.2849 154.795 21.0357 156.474 20.1021C158.737 18.8375 162.942 19.7372 167.902 22.4022C166.647 24.7702 166.494 27.5795 167.486 30.0663C163.926 31.0169 157.839 32.0863 155.168 30.1342ZM176.956 44.724C175.879 45.7849 174.353 46.2602 172.861 45.9971C169.47 45.6576 168.817 44.0025 168.614 43.4593C168.003 40.1747 168.648 36.7798 170.42 33.945C173.073 35.4642 176.295 35.617 179.075 34.3609C179.618 37.9595 178.863 41.6346 176.956 44.7324V44.724ZM196.794 37.2551C195.107 39.5891 193.377 40.6585 191.648 40.5397C188.146 40.2936 184.671 35.2181 182.984 32.1966C184.459 31.3139 185.552 29.922 186.078 28.2839C190.461 29.3364 196.192 31.8656 197.302 34.6325C197.65 35.5406 197.447 36.5591 196.777 37.2636H196.794V37.2551Z" fill="#033A43"/>
<path d="M193.88 96.89L197.17 98.86C197.81 99.24 198.64 99.02 198.99 98.36L201.38 93.95C201.73 93.29 202.57 93.07 203.2 93.45L207.34 95.93C207.98 96.31 208.81 96.09 209.17 95.43L210.46 93.03C210.79 92.41 210.58 91.64 209.98 91.28L205.63 88.68C205.03 88.32 204.82 87.55 205.15 86.93L207.64 82.33C207.97 81.71 207.76 80.94 207.16 80.58L204.94 79.26C204.3 78.88 203.47 79.11 203.12 79.76L200.74 84.17C200.39 84.83 199.56 85.05 198.92 84.67L194.77 82.2C194.13 81.82 193.3 82.05 192.95 82.7L191.66 85.08C191.33 85.7 191.54 86.47 192.14 86.83L196.49 89.43C197.09 89.79 197.3 90.56 196.97 91.18L193.89 96.89H193.88Z" fill="#DA6A9E"/>
<path d="M13.7946 143.039L19.5784 160.077C19.8281 160.824 20.9293 160.637 20.9062 159.851L20.1834 130.84C20.173 130.305 19.5836 129.982 19.1319 130.26L8.85207 136.814C8.49449 137.046 8.01221 136.881 7.84875 136.48L1.75305 121.295C1.45008 120.531 0.327024 120.83 0.445224 121.646L4.28682 147.848C4.35577 148.342 4.91169 148.602 5.32289 148.34L13.7946 143.039Z" fill="#F3B12E"/>
<g clip-path="url(#clip0_59_31)">
<path d="M79.58 148.18L67.38 154.96C63.71 157 59.07 155.68 57.03 152L20.46 86.16C18.42 82.49 19.74 77.85 23.42 75.81L118.53 22.96C122.2 20.92 126.84 22.24 128.88 25.92L165.46 91.76C167.5 95.43 166.18 100.07 162.5 102.11L144.24 112.26" fill="#FBF2DB"/>
<path d="M88.33 34.21L90.68 38.45L84.02 42.14L81.67 37.9C79.73 34.48 76.52 31.96 72.73 30.89C68.94 29.82 64.89 30.3 61.45 32.21C58.01 34.12 55.47 37.32 54.37 41.1C53.28 44.88 53.72 48.94 55.61 52.39L57.96 56.64L51.3 60.33L48.94 56.09C47.48 53.5 46.55 50.65 46.19 47.7C45.84 44.75 46.07 41.76 46.88 38.9C47.69 36.04 49.05 33.37 50.89 31.04C52.73 28.71 55.02 26.77 57.62 25.32C60.22 23.88 63.07 22.96 66.03 22.63C68.99 22.3 71.97 22.55 74.83 23.37C77.69 24.19 80.35 25.58 82.66 27.44C84.97 29.3 86.91 31.6 88.33 34.2V34.21Z" fill="#81A046"/>
<path d="M104.19 94.65C103.55 93.68 102.98 92.58 103.22 91.57C103.43 90.7 104.24 90.14 104.98 89.66C108.28 87.5 111.51 85.22 114.63 82.81C115.17 82.39 115.74 81.94 115.97 81.29C116.01 81.19 116.03 81.08 116.05 80.97C116.2 80.1 115.75 79.18 115.29 78.39C113.84 75.89 112.22 73.49 110.45 71.21C109.75 70.31 108.93 69.37 107.81 69.16C107.02 69.02 106.22 69.26 105.47 69.54C102.27 70.73 99.3 72.55 96.79 74.87C96 75.6 94.83 76.41 93.99 75.75C93.74 75.55 93.59 75.25 93.45 74.97C92.22 72.48 90.99 70 89.76 67.51C89.22 66.42 88.67 65.31 87.83 64.44C85.74 62.29 83.97 63.36 81.86 64.74C79.75 66.12 77.8 67.66 76 69.39C75.39 69.97 74.78 70.61 74.53 71.41C74.17 72.55 74.6 73.77 75.04 74.88C76.54 78.71 78.16 82.5 79.91 86.23C80.04 86.5 80.17 86.81 80.07 87.1C80 87.29 79.84 87.44 79.69 87.57C75.99 90.8 71.92 93.65 68.69 97.35C68.13 97.99 67.58 98.69 67.44 99.53C67.26 100.63 67.81 101.7 68.38 102.65C70.01 105.37 71.94 107.9 74.13 110.19C74.8 110.88 75.54 111.59 76.47 111.8C78.08 112.17 79.61 111.02 80.86 109.94C82.3 108.7 83.74 107.46 85.18 106.22C85.81 105.68 88.86 102.16 89.59 103.19C91.88 106.45 93.57 110.12 96.01 113.27C96.92 114.45 98.1 115.71 99.59 115.62C100.42 115.57 101.15 115.1 101.83 114.62C104.39 112.81 106.72 110.69 108.78 108.32C109.55 107.43 110.64 106.22 110.28 104.95C109.86 103.45 108.62 101.83 107.89 100.44C107.1 98.94 106.13 97.54 105.21 96.12C104.93 95.69 104.56 95.19 104.2 94.66L104.19 94.65Z" fill="#E7BB43"/>
<path d="M144.25 114.75C143.37 114.75 142.52 114.29 142.06 113.46C141.39 112.25 141.82 110.73 143.03 110.06L161.29 99.91C163.75 98.54 164.64 95.43 163.27 92.96L144.78 59.68C144.11 58.47 144.54 56.95 145.75 56.28C146.96 55.61 148.48 56.04 149.15 57.25L167.64 90.53C170.35 95.4 168.59 101.57 163.71 104.28L145.45 114.43C145.07 114.64 144.65 114.74 144.24 114.74L144.25 114.75Z" fill="#033A43"/>
<path d="M63.71 158.41C60.15 158.41 56.7 156.53 54.86 153.21L18.27 87.37C15.56 82.5 17.32 76.33 22.2 73.62L110.55 24.53C111.76 23.86 113.28 24.29 113.95 25.5C114.62 26.71 114.19 28.23 112.98 28.9L24.63 78C22.17 79.37 21.28 82.49 22.65 84.95L59.23 150.79C60.6 153.25 63.72 154.14 66.18 152.77L78.38 145.99C79.59 145.32 81.11 145.75 81.78 146.96C82.45 148.17 82.02 149.69 80.81 150.36L68.61 157.14C67.06 158 65.38 158.41 63.72 158.41H63.71Z" fill="#033A43"/>
<path d="M102.13 138.15C101.25 138.15 100.4 137.69 99.94 136.86C99.27 135.65 99.7 134.13 100.91 133.46L127.25 118.83C128.46 118.16 129.98 118.59 130.65 119.8C131.32 121.01 130.89 122.53 129.68 123.2L103.34 137.83C102.96 138.04 102.54 138.14 102.13 138.14V138.15Z" fill="#033A43"/>
</g>
<defs>
<clipPath id="clip0_59_31">
<rect width="151.92" height="136.41" fill="white" transform="translate(17 22)"/>
</clipPath>
</defs>
</svg>
