<svg width="317" height="184" viewBox="0 0 317 184" fill="none" xmlns="http://www.w3.org/2000/svg">
<path d="M164.861 61.8862C146.457 60.8493 128.026 61.2551 109.568 61.5436C109.496 50.625 110.272 5.07545 110.272 3.02878C110.272 3.02878 153.037 2.51486 153.551 2.49683C161.647 2.23536 163.2 4.13777 163.588 10.5663C164.599 27.2011 165.059 44.476 164.87 61.8862H164.861Z" fill="white"/>
<path d="M164.842 63.2295C164.671 76.9882 164.156 89.4395 163.317 102.08C162.315 117.245 163.182 120.68 151.367 120.96C148.37 121.032 132.918 121.807 110.056 121.825C110.046 106.309 109.604 67.0163 109.577 62.8869C128.053 62.5894 146.502 62.1927 164.842 63.2295Z" fill="white"/>
<path d="M108.918 3.03768C108.918 4.84091 108.783 6.66217 108.729 8.47441C108.666 10.4399 108.196 57.4411 108.223 61.5705C90.1176 61.859 72.1652 62.0123 54.0503 60.5517C53.9149 43.6284 54.3481 27.5075 55.35 11.0801C55.711 5.13844 56.8754 2.43359 63.2837 2.43359L108.936 3.03768H108.918Z" fill="white"/>
<path d="M108.711 121.826C99.0983 121.826 83.1677 121.573 69.3942 121.041C65.7207 120.897 62.0472 120.996 59.9532 119.68C58.139 118.544 57.0017 116.38 56.4782 113.071C55.3951 106.192 54.1947 76.3932 54.0413 61.8862C72.0839 63.3378 90.1266 63.1936 108.223 62.9051L108.702 121.826H108.711Z" fill="white"/>
<path d="M92.4911 27.2103C85.8572 22.5579 86.3807 15.3631 90.8575 12.4689C91.4712 12.0631 91.4351 11.0173 90.6408 10.8279C86.137 9.77305 82.1836 7.08623 80.4778 2.78553C80.4056 2.60521 80.3785 2.6593 75.3511 2.59619C76.1724 5.55349 76.3981 8.88045 76.0731 11.9099C74.7012 24.8661 63.6085 33.2241 54.366 31.2044C54.2035 36.533 54.1042 40.9058 54.1042 41.573C59.9259 42.2041 62.9496 47.172 65.6302 51.9145C66.0635 52.6809 67.4444 52.4284 67.2729 51.2293C66.8939 48.5605 68.1394 45.8557 70.089 44.0795C73.3112 41.1492 78.7628 40.9329 82.4995 43.7098C83.1043 44.1606 84.1964 43.4574 83.7271 42.4836C80.7395 36.3346 85.3607 29.6807 92.0669 28.9053C92.9966 28.8693 93.3035 27.6701 92.4911 27.2103Z" fill="#82D0C8"/>
<path d="M73.9521 2.56898C71.2533 2.53291 69.1413 2.50586 66.9209 2.44275C63.9514 2.3616 59.6551 1.76654 57.3716 4.17385C55.0249 6.65329 55.3679 9.70977 55.0971 13.7129C54.8173 17.8513 54.5826 24.2077 54.4021 29.8248C66.0545 32.6198 78.4921 18.0768 73.943 2.56898H73.9521Z" fill="#82D0C8"/>
<path d="M166.287 45.4857C166.711 75.9332 164.653 107.012 163.895 113.332C162.983 120.924 158.822 122.222 151.403 122.393C134.073 122.808 112.529 124.125 69.34 122.484C65.2151 122.33 61.6951 122.466 59.1949 120.906C54.7452 118.12 54.682 111.222 54.33 105.191C52.6241 75.8881 51.5139 50.3814 53.9058 10.9899C54.0863 8.01454 54.3119 4.31792 57.3536 2.3524C59.6372 0.873749 62.5345 0.954894 65.0888 1.03604C65.2693 1.03604 106.734 1.64914 117.294 1.48685C123.946 1.38767 152.991 1.09014 153.497 1.0721C155.988 0.999975 158.804 0.909814 161.16 2.12699C164.617 3.91219 164.86 8.02356 165.014 10.485C165.853 24.3067 166.133 34.5581 166.287 45.4947V45.4857ZM164.86 61.886C165.05 44.4308 164.581 26.9214 163.579 10.5661C163.389 7.52767 163.019 4.6966 160.501 3.39827C158.019 2.11798 154.824 2.51469 152.035 2.54174C148.181 2.5778 110.263 3.03763 110.263 3.03763C110.263 6.55392 109.279 19.2667 109.559 61.5524C127.972 61.2549 146.439 60.8492 164.851 61.8951L164.86 61.886ZM164.842 63.2294C146.484 62.1926 127.999 62.5893 109.577 62.8868C109.604 67.0162 110.047 106.309 110.056 121.825C132.746 121.807 148.668 121.023 151.367 120.96C158.136 120.798 161.656 119.923 162.469 113.152C162.956 109.122 164.545 86.7436 164.842 63.2294ZM108.729 8.47436C108.783 6.67113 108.918 4.84987 108.918 3.03763C87.9151 2.686 67.2008 2.53272 65.0527 2.46961C62.706 2.39748 60.0794 2.2983 58.1299 3.55155C55.7019 5.12036 55.5033 8.28502 55.3319 11.071C54.33 27.4984 53.8967 43.6193 54.0321 60.5426C72.156 62.0032 90.1084 61.85 108.205 61.5615C108.178 57.4321 108.647 10.4309 108.711 8.46535L108.729 8.47436ZM108.711 121.825C108.711 113.107 108.305 73.8234 108.232 62.9049C90.1897 63.1934 72.129 63.3466 54.0502 61.886C54.2488 81.0273 55.6297 107.643 56.4872 113.071C57.7779 121.311 62.0381 120.752 69.4031 121.041C82.7614 121.555 99.2696 121.825 108.72 121.825H108.711Z" fill="#006676" stroke="#006676" stroke-width="1.5"/>
<path d="M128.676 22.3412C130.878 20.4388 133.36 18.87 136.059 17.6708C136.799 17.3462 136.203 16.2372 135.463 16.5708C132.954 17.6798 130.58 19.1495 128.414 20.9347C126.952 18.5544 124.686 16.7872 122.006 15.9487C121.23 15.7053 120.887 16.9134 121.663 17.1569C124.235 17.9683 126.428 19.8076 127.692 22.2059C127.891 22.5756 128.378 22.6026 128.676 22.3502V22.3412Z" fill="#006676" stroke="#006676" stroke-width="1.5"/>
<path d="M137.927 38.0291C136.258 38.7685 134.669 39.7422 133.216 40.9143C132.187 39.3365 130.625 38.1554 128.82 37.5783C128.044 37.3349 127.692 38.534 128.477 38.7865C130.21 39.3365 131.645 40.5446 132.512 42.1675C132.71 42.5372 133.189 42.5733 133.496 42.3118C134.994 41.0225 136.682 39.9496 138.532 39.1291C139.281 38.7955 138.667 37.7045 137.936 38.0291H137.927Z" fill="#006676" stroke="#006676" stroke-width="1.5"/>
<path d="M152.748 26.4256C151.078 27.1649 149.489 28.1387 148.036 29.3108C147.007 27.733 145.455 26.5518 143.641 25.9748C142.864 25.7314 142.521 26.9305 143.298 27.183C145.04 27.733 146.466 28.9411 147.332 30.564C147.522 30.9337 148.009 30.9698 148.316 30.7083C149.814 29.419 151.502 28.3461 153.352 27.5256C154.102 27.192 153.488 26.101 152.757 26.4256H152.748Z" fill="#006676" stroke="#006676" stroke-width="1.5"/>
<path d="M316.35 155.059C314.771 151.398 310.691 149.838 307.306 150.866C307.478 149.442 307.541 147.999 307.496 146.575C307.478 146.097 307.126 145.475 306.593 145.393C301.241 144.618 271.862 144.789 266.744 145.042C265.607 145.096 265.228 145.601 265.246 146.268C265.372 150.965 265.507 155.843 266.897 160.378C268.513 165.608 272.728 170.044 278.812 171.964L276.068 179.204C275.842 179.79 276.32 180.592 276.925 180.71C283.117 181.891 289.417 182.017 295.663 181.133C296.268 181.043 296.746 180.187 296.52 179.628C295.338 176.743 294.508 173.704 294.11 170.603C297.775 168.763 301.06 165.86 303.452 162.055C304.598 163.624 305.844 164.985 307.775 165.472C313.534 166.906 318.886 160.964 316.341 155.068L316.35 155.059ZM308.886 163.191C307.026 162.957 305.817 161.316 304.779 159.666C305.691 157.773 306.376 155.762 306.828 153.706C309.102 152.318 312.406 152.967 313.859 155.51C316.07 159.377 312.785 163.687 308.886 163.191Z" fill="#DA6A9E"/>
<path d="M278.748 173.307C283.713 175.543 289.742 175.02 294.155 171.784C294.562 171.486 294.751 170.99 294.489 170.53C294.264 170.134 293.632 169.908 293.235 170.197C289.372 173.019 284.074 173.695 279.678 171.721C279.227 171.513 278.694 171.594 278.423 172.054C278.189 172.442 278.306 173.109 278.757 173.307H278.748Z" fill="#006676" stroke="#006676" stroke-width="1.5"/>
<path d="M279.534 117.344C277.972 120.347 276.79 126.054 278.92 128.353C280.048 129.57 281.583 129.561 282.061 131.797C282.458 133.636 281.601 135.512 280.869 137.153C280.671 137.613 280.743 138.135 281.203 138.406C281.592 138.64 282.259 138.532 282.458 138.072C283.243 136.305 284.074 134.448 283.983 132.473C283.902 130.67 283.117 129.119 281.628 128.082C281.023 127.668 280.265 127.325 279.94 126.622C279.398 125.441 279.344 121.672 281.113 118.264C281.655 117.218 280.075 116.289 279.525 117.335L279.534 117.344Z" fill="#006676" stroke="#006676" stroke-width="1.5"/>
<path d="M289.787 122.907C288.957 124.773 288.144 126.712 288.541 128.795C289.056 131.518 290.879 131.824 291.899 132.527C293.126 133.375 293.397 135.07 293.28 136.449C293.099 138.514 292.025 140.435 291.448 142.4C291.123 143.536 292.892 144.023 293.217 142.887C294.192 139.524 296.43 135.665 294.173 132.293C292.811 130.255 291.213 130.724 290.536 129.074C289.814 127.334 290.671 125.423 291.375 123.827C291.574 123.367 291.502 122.844 291.042 122.574C290.653 122.339 289.985 122.447 289.787 122.907Z" fill="#006676" stroke="#006676" stroke-width="1.5"/>
<path d="M226.633 147.99C226.633 149.189 78.5101 147.99 77.3277 147.99C77.3277 147.99 76.2627 64.1039 77.8422 58.1803C77.8422 58.1803 216.308 56.2959 225.225 58.1803C225.225 58.1803 226.633 140.489 226.633 147.99Z" fill="#82D0C8"/>
<path d="M76.4883 147.855L36.7205 174.867C190.467 176.526 142.539 175.715 267.349 174.768L227.635 148.252L76.4883 147.855Z" fill="white"/>
<path d="M268.739 182.17C266.076 183.063 38.7333 183.108 35.9353 182.17C35.8811 179.781 36.0075 177.383 36.3234 175.012L51.7846 175.3C51.911 175.535 267.295 174.759 267.34 174.723L268.342 175.021C268.658 177.392 268.784 179.79 268.73 182.18L268.739 182.17Z" fill="#82D0C8"/>
<path d="M220.288 149.189C221.254 120.599 219.647 95.9671 218.456 69.2162C218.402 68.026 218.338 66.7818 217.842 65.7359C216.921 63.7794 87.2381 63.7794 86.3175 65.7359C85.821 66.7818 85.7578 68.026 85.7037 69.2162C84.5123 95.9671 84.07 119.517 85.0448 148.107L220.297 149.189H220.288Z" fill="white"/>
<path d="M269.019 175.012C268.983 174.723 268.17 173.533 267.881 173.317C267.701 173.172 233.926 151.507 227.292 147.332C227.283 143.618 225.893 58.2346 225.884 58.1805C225.884 57.901 225.677 57.5945 225.388 57.5314C223.384 57.1166 221.236 57.1347 219.205 57.0625C204.845 56.5125 78.0138 57.5043 77.8243 57.5133C77.5264 57.5133 77.2556 57.7207 77.1744 58.0092C75.8927 62.8779 76.5787 146.331 76.5787 146.512C74.4486 148.063 36.3325 173.831 36.0888 174.381C35.827 174.471 35.6736 174.732 35.6375 175.012C35.3306 177.392 35.2042 179.772 35.2494 182.171C35.2674 183.235 37.226 182.946 38.6431 182.991L269.199 182.639C269.316 182.531 269.389 182.378 269.398 182.18C269.443 179.781 269.307 177.401 269.01 175.021L269.019 175.012ZM266.482 174.047C266.311 174.047 238.078 174.164 235.181 174.173C233.177 171.811 231.209 169.404 229.251 166.996C229.675 166.996 252.962 167.06 255.687 167.114C257.845 168.493 265.029 173.127 266.482 174.047ZM180.286 166.888L201.948 166.933L204.755 174.29L181.639 174.372C181.766 174.101 181.793 174.345 180.277 166.897L180.286 166.888ZM110.732 155.871L107.23 165.446H81.8047C84.2868 162.263 86.7689 159.089 89.269 155.925L110.742 155.871H110.732ZM90.3251 154.581C90.5056 154.356 93.6014 150.479 95.0095 148.793L113.323 148.91C112.61 150.776 111.915 152.652 111.22 154.536L90.316 154.59L90.3251 154.581ZM106.743 166.789C106.499 167.438 104.604 172.568 103.873 174.471C103.801 174.66 103.873 174.597 74.4757 174.651C76.6148 172.064 78.6907 169.431 80.7486 166.789H106.734H106.743ZM108.169 166.789L133.153 166.807L133.089 174.507L105.263 174.579C106.247 171.982 108.169 166.78 108.169 166.78V166.789ZM108.666 165.446L112.168 155.871L133.243 155.834L133.162 165.464L108.666 165.437V165.446ZM112.655 154.527C112.7 154.419 114.09 150.668 114.758 148.919L133.297 149.027L133.252 154.5L112.655 154.527ZM85.7038 147.377C85.0991 129.444 85.0449 112.566 85.424 95.9672C85.6136 87.6904 86.3447 69.0179 86.4439 67.954C86.5613 66.7278 86.7779 66.3852 86.8591 66.2049C91.9046 65.15 209.304 64.4558 217.292 66.2049C217.4 66.5114 217.644 66.7819 217.752 68.4319C217.788 69.027 219.295 100.8 219.566 109.185C219.981 122.294 220.072 134.61 219.629 147.684C213.41 147.792 204.935 147.747 85.7038 147.386V147.377ZM197.696 155.798L201.433 165.581L180.015 165.536L178.02 155.798H197.696ZM177.74 154.455C177.722 154.374 177.027 150.858 176.693 149.172C179.383 149.172 191.685 149.19 195.16 149.181L197.173 154.455H177.74ZM199.123 155.798H218.456L226.435 165.644L202.859 165.581L199.123 155.798ZM198.617 154.455L196.595 149.181C198.464 149.181 209.349 149.135 212.923 149.099C214.412 150.885 215.893 152.67 217.364 154.473H198.608V154.464L198.617 154.455ZM155.889 155.816C156.205 159.044 156.503 162.272 156.719 165.5L134.507 165.473L134.588 155.834L155.889 155.816ZM134.597 154.491L134.642 149.027L155.212 149.117L155.753 154.473L134.597 154.491ZM134.498 166.816L156.809 166.843C156.963 169.241 157.062 171.396 157.125 174.435L134.443 174.507L134.507 166.816H134.498ZM157.098 154.473L156.557 149.126L175.33 149.181C175.673 150.948 176.016 152.706 176.377 154.473H157.098ZM176.648 155.807L178.643 165.545L158.064 165.509C157.838 162.272 157.549 159.044 157.234 155.816H176.657L176.648 155.807ZM178.914 166.879L180.412 174.363L158.47 174.435C158.425 171.901 158.308 169.368 158.154 166.843L178.923 166.879H178.914ZM203.383 166.933L227.536 166.996C228.411 168.069 232.338 172.866 233.448 174.182L206.19 174.281L203.383 166.933ZM253.458 165.68C247.745 165.752 253.44 165.725 228.168 165.653L220.189 155.825C223.898 155.825 235.858 155.834 238.132 155.88L253.458 165.68ZM235.93 154.464C233.321 154.527 235.93 154.5 219.097 154.473C218.799 154.112 215.856 150.515 214.665 149.081C215.802 149.072 226.913 148.775 226.913 148.775C226.913 148.775 230.478 150.966 235.939 154.464H235.93ZM77.8152 71.7228C77.8333 69.613 78.0138 61.0747 78.3929 58.8477C79.4489 58.8297 212.255 58.1986 216.642 58.3248C219.034 58.3969 222.066 58.442 224.557 58.7485C224.602 61.3181 225.956 147.404 225.956 147.449C225.55 147.522 221.146 147.648 220.965 147.648C221.895 120.167 220.415 97.2295 219.178 70.2712C219.124 69.027 219.088 66.0426 218.302 65.2221C217.725 64.609 213.14 64.4648 211.921 64.4017C211.741 64.4017 111.87 62.932 89.4134 64.564C85.3699 64.8615 85.2345 64.3386 84.9547 70.6408C83.7452 97.8786 83.4564 120.816 84.3499 147.359L77.9867 147.314C77.9506 144.131 77.7882 74.3375 77.8152 71.7138V71.7228ZM76.5065 148.225C78.781 148.468 87.2743 148.73 93.2765 148.775C91.697 150.686 90.1445 152.634 88.6101 154.581C88.0144 154.581 68.8887 154.644 67.0745 154.68L76.5065 148.225ZM65.0707 156.051C65.2783 156.132 65.0888 155.997 87.5541 155.934L80.1078 165.446C78.429 165.446 53.4635 165.446 51.189 165.5L65.0707 156.051ZM49.1943 166.852C49.4651 166.942 48.5715 166.798 79.0518 166.789C78.2124 167.862 74.0244 173.118 72.7337 174.66C52.3263 174.687 56.9746 174.723 38.2369 174.372L49.2033 166.852H49.1943ZM51.9742 174.678C51.7937 174.624 51.7937 174.633 51.9742 174.651V174.678ZM144.679 182.135L40.2497 181.684C39.0853 181.657 37.8037 181.458 36.6123 181.521C36.6032 179.574 36.7116 177.635 36.9282 175.697C70.0259 176.31 71.5242 176.085 267.737 175.535C267.972 177.536 268.08 179.547 268.071 181.567C267.881 181.576 189.212 182.135 144.679 182.135Z" fill="#006676" stroke="#006676" stroke-width="1.5"/>
<path d="M107.591 77.8084C118.413 77.2314 130.391 77.1142 141.168 78.142C141.817 90.4851 140.68 105.452 141.33 117.795C141.33 117.795 120.183 119.58 107.483 117.606C106.833 105.263 107.971 90.2958 107.321 77.9527L107.591 77.8084Z" fill="#F3B12E"/>
<path d="M197.552 78.5298C198.355 97.1031 196.947 119.634 197.751 138.208L197.417 138.433C184.04 139.299 169.229 139.479 155.898 137.928C155.095 119.355 156.475 96.6162 155.672 78.0429C161.801 77.8536 179.23 76.411 197.552 78.5388V78.5298Z" fill="#82D0C8"/>
<path d="M141.845 78.142C141.827 77.7543 141.547 77.5019 141.168 77.4658C130.201 76.42 118.675 76.5462 107.592 77.1322C107.33 77.1503 106.617 77.4027 106.644 77.9527C107.312 90.8007 106.156 105.1 106.806 117.606C106.824 117.993 107.104 118.246 107.483 118.282C118.278 119.31 129.587 119.202 140.409 118.652C141.095 118.616 142.034 118.489 141.998 117.795C141.33 104.938 142.494 90.7015 141.836 78.142H141.845ZM108.124 116.993C107.51 104.127 108.611 90.8999 108.016 78.4576C118.702 77.8986 129.903 77.7994 140.527 78.7551C141.141 91.6212 140.039 104.848 140.635 117.29C129.949 117.84 118.747 117.948 108.124 116.993Z" fill="#006676" stroke="#006676"/>
<path d="M198.229 78.5299C198.211 78.1332 197.931 77.8988 197.552 77.8537C184.004 76.2849 169.608 76.4743 156.033 77.3488C155.753 77.3669 155.004 77.7365 155.022 78.2414C155.826 96.8958 154.417 119.22 155.221 137.919C155.239 138.316 155.519 138.55 155.898 138.596C168.904 140.101 183.12 139.975 196.279 139.173C197.38 139.109 197.417 139.263 198.075 138.794C198.644 138.388 198.319 138.469 198.202 130.571C198.003 117.335 198.87 93.659 198.22 78.5299H198.229ZM156.557 137.324C155.807 118.742 157.161 97.3016 156.394 78.6742C169.689 77.8267 183.715 77.6644 196.902 79.134C197.651 97.6442 196.306 119.202 197.065 137.784C183.77 138.632 169.743 138.794 156.557 137.324Z" fill="#006676" stroke="#006676"/>
<path d="M124.984 84.0475C125.797 83.4615 125.652 82.5599 125.156 82.055C124.461 81.3427 122.8 81.532 122.845 83.0828C122.899 84.6787 124.407 84.4533 124.975 84.0475H124.984Z" fill="#006676"/>
<path d="M177.524 85.5806C178.3 85.0216 178.21 84.1831 177.767 83.6692C177.271 83.0831 175.15 82.9299 175.204 84.7151C175.258 86.3289 176.937 86.0044 177.515 85.5806H177.524Z" fill="#006676"/>
<path d="M134.127 93.8666C127.223 93.6412 120.309 93.5961 113.395 93.7313C112.528 93.7494 112.528 95.0928 113.395 95.0748C120.309 94.9305 127.223 94.9756 134.127 95.21C134.994 95.237 134.994 93.8936 134.127 93.8666Z" fill="#006676" stroke="#006676"/>
<path d="M133.821 108.265C126.916 108.04 120.002 107.995 113.088 108.13C112.222 108.148 112.222 109.491 113.088 109.473C120.002 109.329 126.916 109.374 133.821 109.608C134.687 109.635 134.687 108.292 133.821 108.265Z" fill="#006676" stroke="#006676"/>
<path d="M134.127 100.764C127.223 100.538 120.309 100.493 113.395 100.628C112.528 100.646 112.528 101.99 113.395 101.972C120.309 101.827 127.223 101.873 134.127 102.107C134.994 102.134 134.994 100.791 134.127 100.764Z" fill="#006676" stroke="#006676"/>
<path d="M187.597 94.7592C180.692 94.5338 173.778 94.4887 166.864 94.6239C165.998 94.642 165.998 95.9854 166.864 95.9673C173.778 95.8231 180.692 95.8682 187.597 96.1026C188.463 96.1296 188.463 94.7862 187.597 94.7592Z" fill="#006676" stroke="#006676"/>
<path d="M187.299 109.167C180.394 108.941 173.48 108.896 166.566 109.032C165.7 109.05 165.7 110.393 166.566 110.375C173.48 110.231 180.394 110.276 187.299 110.51C188.165 110.537 188.165 109.194 187.299 109.167Z" fill="#006676" stroke="#006676"/>
<path d="M187.597 101.665C180.692 101.44 173.778 101.395 166.864 101.53C165.998 101.548 165.998 102.892 166.864 102.874C173.778 102.729 180.692 102.774 187.597 103.009C188.463 103.036 188.463 101.692 187.597 101.665Z" fill="#006676" stroke="#006676"/>
<path d="M187.001 115.766C180.096 115.541 173.182 115.496 166.269 115.631C165.402 115.649 165.402 116.993 166.269 116.975C173.182 116.83 180.096 116.875 187.001 117.11C187.867 117.137 187.867 115.794 187.001 115.766Z" fill="#006676" stroke="#006676"/>
<path d="M186.694 130.174C179.789 129.949 172.875 129.904 165.962 130.039C165.095 130.057 165.095 131.4 165.962 131.382C172.875 131.238 179.789 131.283 186.694 131.518C187.56 131.545 187.56 130.201 186.694 130.174Z" fill="#006676" stroke="#006676"/>
<path d="M187.001 122.673C180.096 122.447 173.182 122.402 166.269 122.538C165.402 122.556 165.402 123.899 166.269 123.881C173.182 123.737 180.096 123.782 187.001 124.016C187.867 124.043 187.867 122.7 187.001 122.673Z" fill="#006676" stroke="#006676"/>
<path d="M24.8154 72.435C22.9651 71.29 21.3134 69.8203 19.9505 68.1253C21.2322 66.277 21.4307 63.7795 20.3296 61.5796C18.3439 57.6034 14.9321 59.2534 15.4376 62.3549C15.7264 64.1401 17.1886 66.6286 18.2356 68.0802C16.4214 69.8293 13.4429 69.9916 11.403 68.2425C10.2658 67.2597 9.35415 65.8352 8.62306 64.5098C10.1213 61.6878 11.9265 56.4674 10.3921 53.6453C9.03825 51.1659 5.46401 51.5897 5.12103 56.0076C4.94052 58.3698 5.42791 61.2369 7.09769 64.5008C5.48206 67.4851 3.12632 68.9007 1.98004 69.4236C1.64608 69.5769 1.57388 70.0457 1.73634 70.3433C1.93491 70.6859 2.33205 70.7309 2.65698 70.5867C4.83221 69.5859 6.55614 67.8548 7.83781 65.8622C8.38839 66.7999 9.00214 67.7015 9.73324 68.4949C12.4681 71.4973 16.5387 71.4613 19.0569 69.1531C20.492 70.8932 22.1799 72.3899 24.1385 73.6071C24.8786 74.0669 25.5555 72.9038 24.8154 72.444V72.435ZM6.76374 54.556C7.18795 53.5552 8.31618 53.0322 9.04728 54.0421C10.5275 56.0707 8.92091 60.7501 7.86489 63.0131C6.81789 60.705 5.82505 56.792 6.76374 54.556ZM16.7553 61.3542C17.324 58.7214 21.16 63.2205 19.093 66.9622C18.3258 65.8352 16.4665 62.6795 16.7553 61.3542Z" fill="#82D0C8" stroke="#82D0C8" stroke-width="1.5"/>
<path d="M258.206 145.366C255.66 145.006 253.341 143.572 251.96 141.408C252.98 140.245 253.954 138.28 254.307 137.054C255.579 132.609 250.389 130.832 249.505 134.565C249.017 136.621 249.243 139.028 250.29 141.147C249.568 141.706 248.683 142.058 247.754 141.886C245.705 141.499 242.844 136.368 245.217 129.723C245.506 128.903 244.207 128.551 243.918 129.363C242.762 132.6 242.564 136.296 243.918 139.497C244.55 141.003 245.533 142.662 247.203 143.13C248.512 143.5 249.884 143.085 250.967 142.319C252.528 144.627 255.029 146.259 257.845 146.665C258.883 146.818 258.919 145.475 258.206 145.366ZM250.823 134.854C250.94 134.376 251.166 133.871 251.725 133.88C253.025 133.907 253.323 135.377 253.097 136.386C252.844 137.504 251.942 139.253 251.301 140.11C250.552 138.316 250.461 136.314 250.832 134.854H250.823Z" fill="#82D0C8" stroke="#82D0C8" stroke-width="1.5" stroke-linejoin="round"/>
<path d="M227.563 47.2347C225.794 46.0626 224.007 44.7733 222.716 43.0693C225.135 36.2441 220.884 34.2335 220.315 35.4416C219.142 37.9391 219.629 40.8693 221.2 43.2496C220.406 45.0709 219.512 46.3061 217.598 45.7741C216.434 45.4495 215.586 44.5569 214.864 43.6102C216.335 40.7702 216.326 36.9112 214.412 34.3687C212.977 32.4573 210.937 33.5843 210.513 35.8654C209.999 38.6604 211.605 41.3923 213.266 43.6914C211.235 46.7028 207.95 45.6028 207.598 43.6193C207.444 42.7717 206.154 43.1324 206.298 43.9799C206.813 46.8831 211.398 48.3527 214.114 44.8094C214.647 45.4586 215.243 46.0626 215.965 46.5135C217.68 47.5774 219.9 47.4872 221.227 45.8733C221.579 45.4495 221.868 44.9717 222.111 44.4758C223.456 46.0266 225.162 47.2618 226.868 48.3978C227.59 48.8757 228.267 47.7126 227.545 47.2347H227.563ZM211.885 38.1194C211.362 35.7752 212.472 34.4138 213.04 34.8285C214.169 35.649 215.234 39.1112 213.97 42.357C213.077 41.0587 212.228 39.6702 211.885 38.1284V38.1194ZM221.263 36.6949C222.481 37.6325 222.22 40.0849 221.805 41.5996C221.055 40.0849 220.749 38.2997 221.263 36.6949Z" fill="#DA6A9E" stroke="#DA6A9E" stroke-width="1.5" stroke-linejoin="bevel"/>
</svg>
