<svg width="215" height="160" viewBox="0 0 215 160" fill="none" xmlns="http://www.w3.org/2000/svg">
<path fill-rule="evenodd" clip-rule="evenodd" d="M40.26 26.33C30.1366 26.33 21.93 34.5366 21.93 44.66C21.93 54.7834 30.1366 62.99 40.26 62.99C50.3834 62.99 58.59 54.7834 58.59 44.66C58.59 34.5366 50.3834 26.33 40.26 26.33ZM17.93 44.66C17.93 32.3275 27.9275 22.33 40.26 22.33C52.5925 22.33 62.59 32.3275 62.59 44.66C62.59 56.9925 52.5925 66.99 40.26 66.99C27.9275 66.99 17.93 56.9925 17.93 44.66Z" fill="#033A43"/>
<path d="M61.8 14.62C60.61 17.32 59.53 19.96 58.55 22.51C57.87 24.28 57.23 26.01 56.63 27.69C51.61 41.86 49.6 52.53 48.51 55.75C47.95 57.42 47.32 57.69 45.67 57.03L27.36 49.57C26.16 49.09 21.97 47.64 21.22 47.02C20.47 46.41 20.59 45.58 21.64 45.09C22.87 44.87 24.29 44.57 25.73 44.37C31.61 43.44 37.87 43.76 38.3 43.75C40.15 43.8 39.16 44.22 42.42 36.31C44.16 32.06 46.35 27.28 48.87 22.52C49.65 21.04 50.46 19.57 51.3 18.11C54.85 11.99 58.88 6.18999 63.15 1.95999C63.71 1.38999 64.35 0.849991 65.01 0.369991C65.49 -9.17912e-06 66.08 -0.130009 66.65 0.139991C67.3 0.429991 67.21 1.04999 67.22 1.65999H67.23C67.25 2.44999 67.27 2.12999 61.8 14.62Z" fill="#64A03D"/>
<path d="M51.14 88.06C51.31 87.05 52.07 86.3 53.18 86.05C53.23 86.04 53.28 86.03 53.34 86.03C54.15 85.93 55.01 86.08 55.83 86.46C58.88 87.86 61.72 89.49 64.29 91.28C64.84 91.67 66.46 92.8 65.67 94.75C65.27 95.72 64.32 96.26 63.19 96.26C62.74 96.26 62.25 96.18 61.75 95.99C58.87 94.9 56.02 93.45 53.04 91.57C51.69 90.72 50.92 89.31 51.14 88.06Z" fill="#82D0C8"/>
<path d="M67.1 125.11C66.65 125.86 66.05 126.48 65.33 126.96C62.11 129.09 59.32 130.62 56.53 131.78C56 132.01 55.52 132.1 55.11 132.1C53.95 132.1 53.28 131.38 53 130.99C52.23 129.92 52.34 128.73 53.31 127.46C54.25 126.24 56.91 124.76 60.87 122.64C61.76 122.17 62.58 121.73 63.24 121.36C64.49 120.65 65.88 120.79 66.77 121.72C67.64 122.62 67.78 124.01 67.1 125.11Z" fill="#82D0C8"/>
<path d="M61.7 112.66C59.17 112.66 55.1 112.26 52.38 111.43C50.04 110.72 49.71 109.4 49.84 108.41C49.93 107.77 50.26 107.22 50.8 106.82C52.39 105.65 55.62 106.05 59.37 106.64C59.81 106.71 60.2 106.78 60.51 106.82C61.46 106.95 62.41 107.1 63.35 107.27C65.54 107.67 65.86 109.12 65.85 109.95C65.84 111.95 64.07 112.4 63.49 112.55C63.43 112.56 63.38 112.57 63.32 112.58C62.92 112.64 62.36 112.66 61.7 112.66Z" fill="#82D0C8"/>
<path d="M15.169 125.652L14.1512 150.985C14.1016 152.094 15.6655 152.405 16.0379 151.359L29.9395 112.836C30.2001 112.126 29.5795 111.403 28.8348 111.54L11.7681 114.965C11.1723 115.09 10.6138 114.629 10.6014 114.019L10.2538 90.9647C10.2414 89.8064 8.5906 89.632 8.32995 90.7654L0.0262387 127.171C-0.135119 127.856 0.473075 128.479 1.15574 128.342L15.169 125.652Z" fill="#DA6A9E"/>
<g clip-path="url(#clip0_59_31)">
<path d="M213.02 35.56C212.67 36.66 213.4 36.47 211.58 43.5C211.58 43.53 202.73 81.83 199.51 93.99C187.92 137.68 187.78 152.37 180.59 154.25C179.54 154.53 179.04 154.6 178.51 154.42C177.73 154.15 178.15 155 175.85 156.56C173.63 158.05 172.55 158.23 170.68 158.09C161.64 157.48 108.7 143.82 90.25 137.03C85.16 135.16 86.35 130.68 91.8 106.77C99.47 73.24 97.32 75.63 114.15 19.55C118.68 4.47001 116.06 3.12002 139.21 7.36001C155.21 10.29 174.55 14.67 202.73 22.85C207.67 24.29 209.73 24.52 211.72 26.83C213.7 29.13 213.5 33.98 213.02 35.55V35.56Z" fill="#033A43"/>
<path d="M213.09 22.53C211.07 20.11 208.99 19.86 204 18.37C175.52 9.80999 155.97 5.24 139.79 2.18C116.4 -2.24 119.04 -0.840005 114.47 14.92C97.46 73.49 99.62 70.98 91.88 106C86.36 130.97 85.17 135.65 90.31 137.6C108.96 144.69 162.46 158.95 171.59 159.6C173.49 159.73 174.59 159.55 176.83 157.99C179.16 156.37 178.72 155.48 179.51 155.76C180.04 155.95 180.56 155.87 181.62 155.59C188.88 153.62 189.03 138.28 200.74 92.65C204 79.96 212.93 39.95 212.94 39.92C214.77 32.58 214.05 32.78 214.39 31.63C214.89 30 215.08 24.92 213.09 22.53ZM168.69 32.62C170.46 28.53 176.12 28.87 175.25 30.89C175.05 31.36 175.76 31.72 176.14 32.64C177.08 34.86 175.48 37.75 172.25 37.59C169.65 37.83 167.62 35.08 168.69 32.62ZM161.88 26.93C161.96 26.55 162.16 26.3 162.55 26.25C167.06 25.67 169.28 30.2 166.89 31.57C166.02 32.07 164.15 32.39 163.41 32.15C163.32 32.12 163.22 32.14 163.13 32.13C162.02 32.07 162.32 31.97 161.61 34.34C161.55 34.52 161.46 34.64 161.27 34.63C160.03 34.58 161.62 28.16 161.88 26.93ZM157.43 25.14C158.4 25.4 159.39 26.28 158.77 27.06C158.24 27.73 157.91 26.66 156.36 26.82C156.04 26.85 155.45 27.03 155.69 27.43C156.16 28.2 155.71 27.59 156.75 29.14C157.75 30.65 157.52 32.78 155.6 33.36C154.57 33.67 151.28 33.79 150.28 33.22C149.76 32.93 150.1 32.05 151.25 31.87C151.56 31.82 154 31.83 154.98 31.58C156.5 31.2 154.64 29.4 153.99 27.9C153.18 26.01 155.53 24.63 157.43 25.14ZM145.84 29.75C148.05 29.37 148.63 29.65 148.29 28.29C148.08 27.43 147.09 26.02 146.81 25.26C146.34 23.99 147.71 23.16 148.87 23.2C152.71 23.36 151.4 26.32 150.25 25.3C149.64 24.75 148.33 24.75 148.6 25.18C148.83 25.53 149.02 25.9 149.27 26.23C150.26 27.6 150.62 29.95 149.03 30.87C147.82 31.57 144.31 32.05 144.18 30.75C144.11 30.01 145.08 29.89 145.84 29.75ZM141.78 23.76C142.02 27.08 141.72 27.18 142.26 27.49C142.57 27.67 142.58 27.84 142.29 27.96C141.86 28.13 141.8 28.43 141.8 28.83C141.77 32 140.85 31.62 140.69 31.17C139.99 29.15 140.83 28.44 139.98 28.36C138.01 28.19 138.08 28.21 137.98 28.18C137.48 28.03 137.66 27.77 137.19 28.52C136.35 29.88 136.24 30.12 136.04 30.24C135.59 30.5 135.27 30.36 135.19 29.85C136.26 26.81 139.23 22.27 139.54 21.93C140.42 20.96 141.6 21.31 141.78 23.76ZM129.31 23.48C129.9 22.96 130.08 20 130.76 18.86C130.92 18.59 135.35 18.05 136.37 21.8C136.28 24.37 133.57 24.35 131.05 24.58C130.46 24.64 130.64 24.55 130.06 27.01C130.02 27.21 129.97 27.41 129.88 27.6C129.74 27.9 129.33 27.91 129.14 27.64C128.79 27.11 129.02 26.67 129.31 24.58C129.37 24.19 128.79 23.94 129.31 23.48ZM177.1 155.77C175.35 157.14 174.3 157.97 172.22 158.01C154.3 155.9 93.49 138.03 90.29 135.56C89.37 134.85 89.78 132.59 92.92 133.28C107.05 136.39 114.7 141.42 173.25 154.98C175.44 155.48 177.5 155.45 177.1 155.77ZM185.49 40.81C184.84 40.69 184.81 40.6 182.75 38.98C179.85 36.69 179.78 36.44 179.68 37.03C179.44 38.38 179.75 38.33 179.41 38.97C179.14 39.46 178.48 39.36 178.35 38.57C178.09 36.98 178.69 33.99 179.06 32.42C179.31 31.31 179.61 30.32 180.4 31.04C180.96 31.55 181.95 30.94 183.58 31.71C185.51 32.62 185.82 34.34 184.16 35.36C182.32 36.47 181.12 35.12 183.95 37.57C185.85 39.22 185.65 39.05 186.2 39.9C186.48 40.32 186.18 40.93 185.49 40.81ZM195.28 35.56C193.64 35.29 193.34 35.2 193.45 35.61C193.71 36.64 193.18 40.74 193.02 41.79C192.95 42.2 192.79 42.42 192.51 42.45C190.17 42.63 192.83 35.1 191.45 34.91C191.12 34.86 189.69 34.66 189.34 34.56C188.01 34.16 188.66 33.01 189.48 32.97C190.99 32.9 191.51 33.06 193.18 33.39C198.84 34.5 197.12 35.86 195.28 35.56Z" fill="#F3B12E"/>
<path d="M180.27 34.03C180.56 32.74 180.44 32.79 180.97 32.82C181.97 32.88 184 33.42 183.16 33.93C182.81 34.14 182.69 34.16 180.47 34.47C180.27 34.5 180.23 34.39 180.26 34.02L180.27 34.03Z" fill="#F3B12E"/>
<path d="M172.4 35.95C172.02 35.86 171.63 35.82 171.27 35.69C169.51 35.05 169.63 32.42 172.65 31.18C173.47 30.84 177.03 35.61 172.4 35.96V35.95Z" fill="#F3B12E"/>
<path d="M140.04 26.89C138.39 26.85 138.2 26.82 138.37 26.54C140 23.76 139.94 23.89 140.07 23.79C140.15 23.98 140.48 26.9 140.04 26.89Z" fill="#F3B12E"/>
<path d="M131.44 22.9C130.91 22.95 131.12 23.06 131.59 20.45C131.64 20.17 131.76 20.13 132.01 20.18C132.99 20.39 133.96 20.63 134.49 21.5C134.82 22.04 134.76 22.27 134.16 22.47C133.2 22.79 132.43 22.81 131.45 22.9H131.44Z" fill="#F3B12E"/>
<path d="M163.73 30.45C162.87 30.45 162.57 30.53 162.63 30.25C163.18 27.67 163.08 27.64 163.41 27.73C164.46 28.03 165.46 28.34 165.94 29.33C166.44 30.38 165.53 30.31 163.94 30.44C163.87 30.44 163.8 30.44 163.73 30.44V30.45Z" fill="#F3B12E"/>
<path d="M159.03 129.18C140.21 124.3 110.81 121.32 111.75 117.33C112.01 115.49 113.83 116.12 114.95 116.28C170.57 125.93 176.77 133.54 159.03 129.19V129.18Z" fill="#033A43"/>
<path d="M179.68 84.47C178.7 88.47 176.93 92.23 174.49 95.55C172.05 98.87 168.98 101.67 165.46 103.8C161.94 105.93 158.03 107.35 153.96 107.97C149.89 108.59 145.74 108.4 141.74 107.42C137.74 106.44 133.98 104.67 130.66 102.23C127.34 99.79 124.54 96.72 122.41 93.2C120.28 89.68 118.86 85.77 118.24 81.7C117.62 77.63 117.81 73.48 118.79 69.48C119.77 65.48 121.54 61.72 123.98 58.4C126.42 55.08 129.49 52.28 133.01 50.15C136.53 48.02 140.44 46.6 144.51 45.98C148.58 45.36 152.73 45.55 156.73 46.53C160.73 47.51 164.49 49.28 167.81 51.72C171.13 54.16 173.93 57.23 176.06 60.75C178.19 64.27 179.61 68.18 180.23 72.25C180.85 76.32 180.66 80.47 179.68 84.47Z" stroke="#033A43" stroke-width="4"/>
<path d="M161.41 79.97C160.43 83.97 159.13 87.85 157.61 91.39C156.09 94.93 154.36 98.07 152.54 100.62C150.71 103.17 148.82 105.08 146.96 106.25C145.11 107.42 143.33 107.81 141.73 107.42C140.13 107.03 138.74 105.85 137.64 103.95C136.54 102.06 135.75 99.48 135.31 96.38C134.88 93.27 134.8 89.7 135.1 85.85C135.4 82.01 136.06 77.97 137.04 73.97C138.02 69.97 139.31 66.09 140.84 62.55C142.36 59.01 144.09 55.87 145.91 53.32C147.74 50.77 149.63 48.86 151.49 47.69C153.34 46.52 155.12 46.13 156.72 46.52C158.32 46.91 159.71 48.09 160.81 49.99C161.91 51.88 162.7 54.46 163.14 57.56C163.57 60.67 163.65 64.24 163.35 68.09C163.05 71.94 162.39 75.97 161.41 79.97Z" stroke="#033A43" stroke-width="4"/>
<path d="M118.78 69.47L179.68 84.47" stroke="#033A43" stroke-width="4" stroke-linecap="round"/>
</g>
<defs>
<clipPath id="clip0_59_31">
<rect width="127.72" height="159.63" fill="white" transform="translate(87)"/>
</clipPath>
</defs>
</svg>
