      <svg width="1775" height="573" viewBox="0 0 1775 573" fill="none" xmlns="http://www.w3.org/2000/svg">
        <g clip-path="url(#clip0_146_292)">
        <path d="M137.393 171.672C142.283 171.672 146.036 172.981 148.653 175.598C151.27 178.215 152.579 181.968 152.579 186.858V343.724C152.579 348.613 151.27 352.367 148.653 354.984C146.036 357.601 142.283 358.909 137.393 358.909H117.146C112.256 358.909 108.503 357.601 105.886 354.984C103.269 352.367 101.96 348.613 101.96 343.724V339.419C96.7261 346.169 90.5796 351.351 83.4861 354.984C76.4098 358.617 68.731 360.424 60.4667 360.424C49.0001 360.424 38.6698 357.222 29.4758 350.817C20.2818 344.412 13.0678 335.632 7.85103 324.509C2.61701 313.37 0 300.887 0 287.062C0 273.237 2.61701 260.754 7.85103 249.615C13.0851 238.475 20.2818 229.712 29.4758 223.307C38.6698 216.902 49.0001 213.7 60.4667 213.7C68.731 213.7 76.4098 215.507 83.4861 219.14C90.5624 222.773 96.7261 227.955 101.96 234.705V186.892C101.96 182.003 103.269 178.249 105.886 175.632C108.503 173.015 112.256 171.707 117.146 171.707H137.393V171.672ZM94.3673 306.913C99.4292 301.593 101.96 294.982 101.96 287.045C101.96 279.108 99.4292 272.496 94.3673 267.176C89.3055 261.856 82.9007 259.205 75.1358 259.205C67.3708 259.205 60.9316 261.856 55.7837 267.176C50.6357 272.496 48.0704 279.108 48.0704 287.045C48.0704 294.982 50.6357 301.593 55.7837 306.913C60.9316 312.234 67.3708 314.885 75.1358 314.885C82.9007 314.885 89.3055 312.234 94.3673 306.913Z" fill="#033A43"/>
        <path d="M231.261 217.212C233.62 217.212 235.479 217.883 236.822 219.244C238.165 220.604 238.854 222.446 238.854 224.805V371.547C238.854 387.059 233.758 399.163 223.548 407.858C213.338 416.535 199.134 420.891 180.918 420.891C174.169 420.891 166.163 419.789 156.883 417.603C153.181 416.587 151.322 414.228 151.322 410.526C151.322 409.511 151.408 408.753 151.58 408.254L156.384 387.249C157.227 383.375 159.345 381.429 162.702 381.429C163.202 381.429 164.131 381.602 165.492 381.929C168.022 382.6 170.467 382.944 172.826 382.944C177.716 382.944 181.503 381.584 184.207 378.898C186.91 376.195 188.253 372.494 188.253 367.759V224.805C188.253 222.446 188.924 220.586 190.284 219.244C191.644 217.901 193.487 217.212 195.845 217.212H231.261ZM194.193 193.556C188.872 188.235 186.221 181.71 186.221 173.945C186.221 166.18 188.872 160.154 194.193 154.834C199.513 149.514 205.952 146.863 213.545 146.863C221.137 146.863 227.37 149.514 232.776 154.834C238.165 160.154 240.868 166.525 240.868 173.945C240.868 181.366 238.165 188.029 232.776 193.435C227.387 198.841 220.965 201.527 213.545 201.527C206.124 201.527 199.495 198.876 194.193 193.556Z" fill="#033A43"/>
        <path d="M398.491 217.212C403.381 217.212 407.135 218.52 409.752 221.137C412.369 223.754 413.677 227.508 413.677 232.397V343.724C413.677 348.613 412.369 352.367 409.752 354.984C407.135 357.601 403.381 358.909 398.491 358.909H378.244C373.354 358.909 369.601 357.601 366.984 354.984C364.367 352.367 363.059 348.613 363.059 343.724V339.419C357.824 346.169 351.678 351.351 344.584 354.984C337.508 358.617 329.829 360.424 321.565 360.424C310.098 360.424 299.768 357.222 290.574 350.817C281.38 344.412 274.166 335.632 268.949 324.509C263.715 313.37 261.098 300.887 261.098 287.062C261.098 273.237 263.715 260.754 268.949 249.615C274.183 238.475 281.38 229.712 290.574 223.307C299.768 216.902 310.098 213.7 321.565 213.7C329.829 213.7 337.508 215.507 344.584 219.14C351.661 222.773 357.824 227.955 363.059 234.705V232.432C363.059 227.542 364.367 223.789 366.984 221.172C369.601 218.555 373.354 217.246 378.244 217.246H398.491V217.212ZM355.483 306.913C360.545 301.593 363.076 294.982 363.076 287.045C363.076 279.108 360.545 272.496 355.483 267.176C350.421 261.856 344.016 259.205 336.251 259.205C328.486 259.205 322.047 261.856 316.899 267.176C311.751 272.496 309.186 279.108 309.186 287.045C309.186 294.982 311.751 301.593 316.899 306.913C322.047 312.233 328.486 314.885 336.251 314.885C344.016 314.885 350.421 312.233 355.483 306.913Z" fill="#033A43"/>
        <path d="M568.391 230.366C577.912 240.834 582.681 255.417 582.681 274.132V343.706C582.681 348.596 581.372 352.349 578.755 354.966C576.138 357.583 572.385 358.892 567.495 358.892H547.248C542.358 358.892 538.605 357.583 535.988 354.966C533.371 352.349 532.062 348.596 532.062 343.706V280.451C532.062 274.046 530.427 269.07 527.121 265.523C523.815 261.977 519.236 260.203 513.33 260.203C507.924 260.203 503.465 262.235 499.918 266.281C496.371 270.327 494.598 275.475 494.598 281.707V343.689C494.598 348.579 493.289 352.332 490.672 354.949C488.055 357.566 484.302 358.875 479.412 358.875H459.165C454.275 358.875 450.522 357.566 447.905 354.949C445.288 352.332 443.979 348.579 443.979 343.689V232.363C443.979 227.473 445.288 223.72 447.905 221.103C450.522 218.486 454.275 217.177 459.165 217.177H479.412C484.13 217.177 487.797 218.365 490.414 220.724C493.031 223.083 494.426 226.544 494.581 231.089C499.642 225.855 505.083 221.809 510.902 218.951C516.722 216.076 522.576 214.646 528.481 214.646C545.509 214.646 558.801 219.881 568.339 230.331L568.391 230.366Z" fill="#033A43"/>
        <path d="M738.548 217.212C743.438 217.212 747.191 218.52 749.808 221.137C752.425 223.754 753.734 227.508 753.734 232.397V348.786C753.734 372.907 747.862 390.95 736.155 402.934C724.43 414.9 706.593 420.891 682.644 420.891C671.504 420.891 661.312 419.789 652.032 417.603C642.752 415.416 634.229 411.783 626.481 406.721C623.279 404.535 621.678 401.832 621.678 398.629C621.678 395.754 622.78 393.154 624.966 390.778L639.394 373.32C641.753 370.29 644.628 368.757 648.003 368.757C649.862 368.757 652.307 369.429 655.337 370.789C662.93 374.835 670.351 376.867 677.599 376.867C696.314 376.867 705.68 366.657 705.68 346.255V339.936C700.446 346.513 694.334 351.575 687.344 355.121C680.337 358.668 672.796 360.442 664.704 360.442C653.237 360.442 642.907 357.239 633.713 350.834C624.519 344.43 617.305 335.649 612.088 324.527C606.854 313.387 604.237 300.905 604.237 287.079C604.237 273.254 606.854 260.771 612.088 249.632C617.322 238.492 624.519 229.729 633.713 223.324C642.907 216.919 653.237 213.717 664.704 213.717C672.796 213.717 680.354 215.49 687.344 219.037C694.334 222.584 700.464 227.645 705.68 234.222V232.449C705.68 227.559 706.989 223.806 709.606 221.189C712.223 218.572 715.976 217.264 720.866 217.264H738.582L738.548 217.212ZM696.676 308.687C701.479 304.555 704.475 299.286 705.663 292.881V281.243C704.475 274.838 701.497 269.569 696.676 265.437C691.872 261.305 686.087 259.239 679.338 259.239C671.573 259.239 665.117 261.89 659.986 267.211C654.838 272.531 652.273 279.142 652.273 287.079C652.273 295.016 654.838 301.628 659.986 306.948C665.134 312.268 671.573 314.919 679.338 314.919C686.087 314.919 691.855 312.853 696.676 308.721V308.687Z" fill="#033A43"/>
        <path d="M886.306 224.305C897.6 230.71 906.502 239.491 912.992 250.613C919.483 261.753 922.737 274.235 922.737 288.061C922.737 301.886 919.483 314.368 912.992 325.508C906.502 336.648 897.6 345.411 886.306 351.816C875.011 358.221 862.357 361.423 848.359 361.423C834.362 361.423 821.707 358.221 810.413 351.816C799.101 345.411 790.217 336.63 783.726 325.508C777.235 314.386 773.981 301.886 773.981 288.061C773.981 274.235 777.235 261.753 783.726 250.613C790.217 239.474 799.118 230.71 810.413 224.305C821.707 217.901 834.362 214.698 848.359 214.698C862.357 214.698 875.011 217.901 886.306 224.305ZM865.301 306.156C869.846 301.352 872.136 295.326 872.136 288.061C872.136 280.795 869.863 274.769 865.301 269.965C860.755 265.162 855.091 262.751 848.342 262.751C841.593 262.751 835.946 265.162 831.383 269.965C826.838 274.769 824.548 280.812 824.548 288.061C824.548 295.309 826.82 301.352 831.383 306.156C835.928 310.96 841.593 313.37 848.342 313.37C855.091 313.37 860.738 310.96 865.301 306.156Z" fill="#033A43"/>
        <path d="M1062.92 324.991C1065.11 326.679 1066.21 328.538 1066.21 330.553C1066.21 332.068 1065.54 333.755 1064.18 335.614C1057.77 343.707 1049.66 350.042 1039.88 354.588C1030.1 359.133 1020.07 361.423 1009.77 361.423H1009.51C996.014 361.423 983.824 358.221 972.943 351.816C962.061 345.411 953.504 336.63 947.255 325.508C941.005 314.368 937.888 301.886 937.888 288.061C937.888 274.235 941.005 261.753 947.255 250.613C953.487 239.474 962.061 230.71 972.943 224.305C983.824 217.901 996.014 214.698 1009.51 214.698H1009.77C1020.07 214.698 1030.1 216.971 1039.88 221.533C1049.66 226.096 1057.75 232.415 1064.18 240.507C1065.52 242.366 1066.21 244.054 1066.21 245.569C1066.21 247.6 1065.11 249.443 1062.92 251.13L1041.42 267.073C1039.56 268.433 1037.78 269.105 1036.1 269.105C1034.24 269.105 1032.46 268.519 1030.78 267.331C1025.89 264.301 1020.57 262.769 1014.83 262.769C1007.41 262.769 1001.16 265.179 996.117 269.983C991.055 274.786 988.524 280.829 988.524 288.078C988.524 295.326 991.055 301.37 996.117 306.173C1001.18 310.977 1007.41 313.387 1014.83 313.387C1020.74 313.387 1026.04 311.872 1030.78 308.825C1032.46 307.654 1034.24 307.051 1036.1 307.051C1037.78 307.051 1039.56 307.723 1041.42 309.083L1062.92 325.026V324.991Z" fill="#033A43"/>
        <path d="M1181.06 224.305C1192.36 230.71 1201.26 239.491 1207.75 250.613C1214.24 261.753 1217.5 274.235 1217.5 288.061C1217.5 301.886 1214.24 314.368 1207.75 325.508C1201.26 336.648 1192.36 345.411 1181.06 351.816C1169.77 358.221 1157.12 361.423 1143.12 361.423C1129.12 361.423 1116.47 358.221 1105.17 351.816C1093.86 345.411 1084.98 336.63 1078.48 325.508C1071.99 314.386 1068.74 301.886 1068.74 288.061C1068.74 274.235 1071.99 261.753 1078.48 250.613C1084.98 239.474 1093.88 230.71 1105.17 224.305C1116.47 217.901 1129.12 214.698 1143.12 214.698C1157.12 214.698 1169.77 217.901 1181.06 224.305ZM1160.08 306.156C1164.62 301.352 1166.91 295.326 1166.91 288.061C1166.91 280.795 1164.64 274.769 1160.08 269.965C1155.53 265.162 1149.87 262.751 1143.12 262.751C1136.37 262.751 1130.72 265.162 1126.16 269.965C1121.61 274.769 1119.32 280.812 1119.32 288.061C1119.32 295.309 1121.6 301.352 1126.16 306.156C1130.7 310.96 1136.37 313.37 1143.12 313.37C1149.87 313.37 1155.51 310.96 1160.08 306.156Z" fill="#033A43"/>
        <path d="M1359.57 230.366C1369.09 240.834 1373.86 255.417 1373.86 274.132V343.706C1373.86 348.596 1372.55 352.349 1369.94 354.966C1367.32 357.583 1363.57 358.892 1358.68 358.892H1338.43C1333.54 358.892 1329.79 357.583 1327.17 354.966C1324.55 352.349 1323.24 348.596 1323.24 343.706V280.451C1323.24 274.046 1321.61 269.07 1318.3 265.523C1315.01 261.977 1310.42 260.203 1304.51 260.203C1299.1 260.203 1294.65 262.235 1291.1 266.281C1287.55 270.327 1285.78 275.475 1285.78 281.707V343.689C1285.78 348.579 1284.47 352.332 1281.85 354.949C1279.24 357.566 1275.48 358.875 1270.59 358.875H1250.35C1245.46 358.875 1241.7 357.566 1239.09 354.949C1236.47 352.332 1235.16 348.579 1235.16 343.689V232.363C1235.16 227.473 1236.47 223.72 1239.09 221.103C1241.7 218.486 1245.46 217.177 1250.35 217.177H1270.59C1275.31 217.177 1278.98 218.365 1281.59 220.724C1284.21 223.083 1285.61 226.544 1285.76 231.089C1290.82 225.855 1296.26 221.809 1302.08 218.951C1307.9 216.076 1313.76 214.646 1319.66 214.646C1336.69 214.646 1349.98 219.881 1359.52 230.331L1359.57 230.366Z" fill="#033A43"/>
        <path d="M1410.55 352.573C1404.65 346.668 1401.7 339.419 1401.7 330.811C1401.7 322.202 1404.65 315.247 1410.55 309.427C1416.46 303.608 1423.62 300.698 1432.06 300.698C1440.49 300.698 1447.45 303.642 1453.44 309.548C1459.43 315.453 1462.43 322.547 1462.43 330.794C1462.43 339.041 1459.43 346.651 1453.44 352.556C1447.45 358.462 1440.32 361.406 1432.06 361.406C1423.79 361.406 1416.46 358.462 1410.55 352.556V352.573Z" fill="#033A43"/>
        <path d="M1613.73 217.212C1618.62 217.212 1622.37 218.52 1624.99 221.137C1627.61 223.754 1628.92 227.508 1628.92 232.397V343.724C1628.92 348.613 1627.61 352.367 1624.99 354.984C1622.37 357.601 1618.62 358.909 1613.73 358.909H1593.48C1588.77 358.909 1585.1 357.738 1582.48 355.363C1579.87 353.004 1578.47 349.543 1578.32 344.998C1573.25 350.232 1567.81 354.278 1561.99 357.136C1556.17 359.994 1550.3 361.44 1544.42 361.44C1527.37 361.44 1514.1 356.206 1504.56 345.755C1495.02 335.305 1490.27 320.704 1490.27 301.989V232.415C1490.27 227.525 1491.58 223.772 1494.19 221.155C1496.81 218.538 1500.56 217.229 1505.45 217.229H1525.7C1530.59 217.229 1534.34 218.538 1536.96 221.155C1539.58 223.772 1540.89 227.525 1540.89 232.415V295.671C1540.89 302.075 1542.52 307.051 1545.83 310.598C1549.12 314.145 1553.71 315.918 1559.62 315.918C1565.01 315.918 1569.48 313.886 1573.03 309.84C1576.58 305.794 1578.35 300.646 1578.35 294.414V232.432C1578.35 227.542 1579.66 223.789 1582.28 221.172C1584.89 218.555 1588.65 217.246 1593.54 217.246H1613.78L1613.73 217.212Z" fill="#033A43"/>
        <path d="M1708.86 263.647C1711.22 264.576 1715.18 265.627 1720.75 266.815C1730.88 269.173 1739.55 271.79 1746.82 274.666C1754.07 277.541 1760.47 282.172 1766.05 288.577C1771.61 294.982 1774.4 303.504 1774.4 314.127C1774.4 323.063 1771.66 331.121 1766.17 338.283C1760.68 345.463 1753.14 351.11 1743.53 355.242C1733.92 359.374 1723.11 361.44 1711.15 361.44C1701.69 361.44 1692.17 359.839 1682.55 356.637C1672.94 353.434 1664.33 348.958 1656.74 343.224C1653.37 340.866 1651.68 337.904 1651.68 334.375C1651.68 331.172 1653.11 328.142 1655.98 325.267L1668.64 312.371C1671.34 309.513 1674.37 308.067 1677.75 308.067C1680.28 308.067 1683.13 308.997 1686.35 310.856C1694.27 315.074 1702.54 317.175 1711.15 317.175C1715.19 317.175 1718.52 316.675 1721.13 315.66C1723.75 314.644 1725.06 313.301 1725.06 311.614C1725.06 310.443 1724.01 309.548 1721.89 308.962C1719.77 308.377 1716.19 307.568 1711.15 306.552C1701.02 304.52 1692.26 302.127 1684.84 299.338C1677.42 296.549 1670.75 291.831 1664.85 285.168C1658.94 278.505 1656 269.363 1656 257.724C1656 249.115 1658.53 241.368 1663.59 234.446C1668.65 227.525 1675.61 222.084 1684.46 218.124C1693.31 214.164 1703.23 212.184 1714.19 212.184C1722.29 212.184 1730.6 213.441 1739.12 215.972C1747.65 218.503 1755.36 222.136 1762.28 226.853C1765.83 229.384 1767.6 232.26 1767.6 235.462C1767.6 238.664 1766.09 241.712 1763.06 244.57L1750.16 257.225C1747.29 260.1 1744.25 261.529 1741.05 261.529C1738.69 261.529 1735.82 260.685 1732.44 258.998C1727.04 256.467 1721.82 255.21 1716.76 255.21C1713.56 255.21 1710.85 255.709 1708.67 256.725C1706.48 257.741 1705.38 258.912 1705.38 260.272C1705.38 261.632 1706.57 262.769 1708.93 263.681L1708.86 263.647Z" fill="#033A43"/>
        <path d="M910.496 538.76C912.08 540.051 912.872 541.497 912.872 543.081C912.872 544.528 912.372 545.819 911.357 546.972C904.866 554.772 896.774 560.832 887.115 565.154C877.439 569.475 867.126 571.645 856.158 571.645C840.714 571.645 826.855 568.15 814.596 561.142C802.32 554.152 792.73 544.51 785.809 532.235C778.888 519.976 775.41 506.254 775.41 491.103C775.41 475.952 778.87 462.23 785.809 449.971C792.73 437.712 802.337 428.071 814.596 421.063C826.855 414.073 840.714 410.561 856.158 410.561C867.126 410.561 877.439 412.73 887.115 417.052C896.791 421.39 904.866 427.52 911.357 435.457C912.372 436.61 912.872 437.833 912.872 439.141C912.872 440.588 912.08 442.103 910.496 443.687L893.829 457.753C892.383 458.907 891.023 459.492 889.715 459.492C888.561 459.492 887.184 458.924 885.6 457.753C881.709 454.723 877.198 452.381 872.067 450.711C866.936 449.058 861.633 448.215 856.158 448.215C847.928 448.215 840.68 450.16 834.396 454.051C828.111 457.942 823.273 463.176 819.899 469.753C816.507 476.33 814.803 483.424 814.803 491.086C814.803 498.747 816.49 505.841 819.899 512.4C823.291 518.977 828.129 524.194 834.396 528.102C840.68 531.994 847.928 533.939 856.158 533.939C861.788 533.939 867.126 533.147 872.17 531.563C877.215 529.979 881.691 527.672 885.6 524.642C887.184 523.488 888.561 522.903 889.715 522.903C891.006 522.903 892.383 523.488 893.829 524.642L910.496 538.708V538.76Z" fill="#DA6A9E"/>
        <path d="M1052.3 412.541C1056.05 412.541 1058.91 413.522 1060.85 415.468C1062.8 417.413 1063.78 420.271 1063.78 424.025V558.25C1063.78 561.865 1062.8 564.672 1060.85 566.686C1058.91 568.718 1056.05 569.716 1052.3 569.716H1035.63C1032.01 569.716 1029.21 568.701 1027.19 566.686C1025.18 564.672 1024.16 561.848 1024.16 558.25V507.166H972.202V558.25C972.202 562.003 971.221 564.844 969.275 566.807C967.33 568.752 964.54 569.734 960.942 569.734H944.276C940.66 569.734 937.854 568.718 935.839 566.703C933.825 564.689 932.809 561.865 932.809 558.267V424.042C932.809 420.288 933.825 417.448 935.839 415.485C937.854 413.539 940.677 412.558 944.276 412.558H960.942C964.54 412.558 967.33 413.539 969.275 415.485C971.221 417.43 972.202 420.288 972.202 424.042V473.18H1024.16V424.042C1024.16 420.288 1025.18 417.448 1027.19 415.485C1029.21 413.539 1032.03 412.558 1035.63 412.558H1052.3V412.541Z" fill="#DA6A9E"/>
        <path d="M1099.92 569.716C1096.3 569.716 1093.5 568.701 1091.48 566.686C1089.47 564.672 1088.45 561.848 1088.45 558.25V424.025C1088.45 420.271 1089.47 417.43 1091.48 415.468C1093.5 413.522 1096.32 412.541 1099.92 412.541H1116.59C1120.18 412.541 1122.97 413.522 1124.92 415.468C1126.86 417.413 1127.85 420.271 1127.85 424.025V558.25C1127.85 562.003 1126.86 564.844 1124.92 566.807C1122.97 568.752 1120.18 569.734 1116.59 569.734H1099.92V569.716Z" fill="#DA6A9E"/>
        <path d="M1283.51 538.76C1285.09 540.051 1285.88 541.497 1285.88 543.081C1285.88 544.528 1285.38 545.819 1284.37 546.972C1277.88 554.772 1269.78 560.832 1260.12 565.154C1250.45 569.475 1240.14 571.645 1229.17 571.645C1213.72 571.645 1199.86 568.15 1187.61 561.142C1175.33 554.152 1165.74 544.51 1158.82 532.235C1151.9 519.976 1148.42 506.254 1148.42 491.103C1148.42 475.952 1151.88 462.23 1158.82 449.971C1165.74 437.712 1175.35 428.071 1187.61 421.063C1199.86 414.073 1213.72 410.561 1229.17 410.561C1240.14 410.561 1250.45 412.73 1260.12 417.052C1269.8 421.39 1277.88 427.52 1284.37 435.457C1285.38 436.61 1285.88 437.833 1285.88 439.141C1285.88 440.588 1285.09 442.103 1283.51 443.687L1266.84 457.753C1265.39 458.907 1264.03 459.492 1262.72 459.492C1261.57 459.492 1260.19 458.924 1258.61 457.753C1254.72 454.723 1250.21 452.381 1245.08 450.711C1239.95 449.058 1234.64 448.215 1229.17 448.215C1220.94 448.215 1213.69 450.16 1207.41 454.051C1201.12 457.942 1196.28 463.176 1192.91 469.753C1189.52 476.33 1187.81 483.424 1187.81 491.086C1187.81 498.747 1189.5 505.841 1192.91 512.4C1196.3 518.977 1201.14 524.194 1207.41 528.102C1213.69 531.994 1220.94 533.939 1229.17 533.939C1234.8 533.939 1240.14 533.147 1245.18 531.563C1250.23 529.979 1254.7 527.672 1258.61 524.642C1260.19 523.488 1261.57 522.903 1262.72 522.903C1264.02 522.903 1265.39 523.488 1266.84 524.642L1283.51 538.708V538.76Z" fill="#DA6A9E"/>
        <path d="M1439.15 556.735C1439.72 558.319 1440.01 559.903 1440.01 561.504C1440.01 564.104 1439.15 566.118 1437.41 567.564C1435.67 569.01 1433.23 569.734 1430.06 569.734H1414.25C1407.9 569.734 1403.49 566.703 1401.05 560.643L1394.76 543.977H1340.86L1334.57 560.643C1332.27 566.703 1327.86 569.734 1321.37 569.734H1305.35C1302.19 569.734 1299.72 568.976 1298 567.461C1296.26 565.946 1295.4 563.966 1295.4 561.504C1295.4 559.92 1295.7 558.336 1296.26 556.735L1346.49 421.649C1348.66 415.588 1352.98 412.558 1359.47 412.558H1375.93C1382.56 412.558 1386.96 415.588 1389.13 421.649L1439.15 556.735ZM1367.92 470.993L1351.26 515.809H1384.38L1367.94 470.993H1367.92Z" fill="#DA6A9E"/>
        <path d="M1604.11 492.859C1604.11 507.872 1600.78 521.439 1594.16 533.56C1587.51 545.681 1578.45 555.202 1566.99 562.141C1555.52 569.062 1542.71 572.54 1528.56 572.54C1512.55 572.54 1498.1 568.976 1485.26 561.831C1472.41 554.686 1462.31 544.838 1454.95 532.286C1447.6 519.735 1443.92 505.669 1443.92 490.07C1443.92 474.471 1447.52 460.628 1454.75 448.077C1461.96 435.526 1471.84 425.677 1484.41 418.532C1496.96 411.387 1511.05 407.823 1526.63 407.823C1537.46 407.823 1547.7 410.027 1557.38 414.435C1567.06 418.842 1575.13 424.937 1581.62 432.719C1582.64 433.873 1583.14 435.095 1583.14 436.404C1583.14 437.988 1582.34 439.503 1580.76 440.949L1564.09 455.016C1562.65 456.169 1561.36 456.754 1560.2 456.754C1558.91 456.754 1557.47 456.186 1555.88 455.016C1552.13 451.985 1547.69 449.644 1542.57 447.974C1537.44 446.321 1532.14 445.477 1526.66 445.477C1518.43 445.477 1511.03 447.423 1504.47 451.314C1497.91 455.205 1492.75 460.559 1488.99 467.326C1485.24 474.109 1483.36 481.685 1483.36 490.053C1483.36 498.42 1485.38 506.254 1489.42 513.106C1493.47 519.959 1499.07 525.331 1506.21 529.239C1513.36 533.13 1521.4 535.075 1530.35 535.075C1539.3 535.075 1547.48 532.51 1554.06 527.397C1560.62 522.283 1564.63 515.672 1566.07 507.597H1533.17C1529.56 507.597 1526.75 506.581 1524.74 504.567C1522.7 502.552 1521.71 499.729 1521.71 496.13V486.816C1521.71 483.217 1522.69 480.428 1524.63 478.483C1526.58 476.537 1529.44 475.556 1533.19 475.556H1592.3C1595.89 475.556 1598.72 476.279 1600.73 477.725C1602.75 479.171 1603.83 481.272 1603.99 484.009C1604.12 485.886 1604.21 488.692 1604.21 492.446V492.876L1604.11 492.859Z" fill="#DA6A9E"/>
        <path d="M1733.89 420.891C1745.94 427.899 1755.33 437.488 1762.04 449.678C1768.75 461.885 1772.11 475.556 1772.11 490.707C1772.11 505.858 1768.75 519.58 1762.04 531.839C1755.33 544.114 1745.94 553.704 1733.89 560.626C1721.84 567.547 1708.24 571.025 1693.09 571.025C1677.93 571.025 1664.37 567.564 1652.38 560.626C1640.4 553.704 1631.07 544.097 1624.35 531.839C1617.64 519.58 1614.28 505.858 1614.28 490.707C1614.28 475.556 1617.64 461.885 1624.35 449.678C1631.07 437.488 1640.4 427.881 1652.38 420.891C1664.37 413.901 1677.93 410.389 1693.09 410.389C1708.24 410.389 1721.84 413.884 1733.89 420.891ZM1712.68 527.827C1718.38 524.143 1722.82 519.098 1725.99 512.676C1729.16 506.254 1730.76 498.937 1730.76 490.707C1730.76 482.477 1729.17 475.332 1725.99 468.841C1722.82 462.35 1718.38 457.254 1712.68 453.587C1706.98 449.902 1700.45 448.06 1693.09 448.06C1685.72 448.06 1679.23 449.902 1673.6 453.587C1667.97 457.271 1663.56 462.35 1660.39 468.841C1657.2 475.332 1655.62 482.632 1655.62 490.707C1655.62 498.782 1657.2 506.254 1660.39 512.676C1663.56 519.098 1667.97 524.143 1673.6 527.827C1679.23 531.512 1685.72 533.354 1693.09 533.354C1700.45 533.354 1706.98 531.512 1712.68 527.827Z" fill="#DA6A9E"/>
        <path d="M367.449 126.65C371.202 126.65 374.06 127.631 376.006 129.576C377.951 131.522 378.933 134.38 378.933 138.133V148.085C378.933 151.701 377.951 154.507 376.006 156.521C374.06 158.553 371.202 159.552 367.449 159.552H277.386C273.77 159.552 270.998 158.57 269.053 156.625C267.107 154.679 266.126 151.821 266.126 148.068V138.116C266.126 137.255 266.264 135.947 266.556 134.225C266.556 132.348 267.71 130.472 270.017 128.595C286.029 114.735 300.319 100.893 312.888 87.0328C325.439 73.173 331.792 62.2745 331.947 54.3374C331.947 49.7232 330.363 45.8666 327.178 42.7502C324.01 39.6512 320.033 38.1016 315.264 38.1016H315.04C311.424 38.1016 307.791 39.083 304.107 41.0285C300.422 42.9741 297.427 45.901 295.12 49.7921C293.828 51.8237 292.554 53.2872 291.332 54.2341C290.109 55.181 288.629 55.6459 286.89 55.6459C285.874 55.6459 285.082 55.577 284.514 55.4221L267.848 51.531C265.833 50.9628 264.197 50.0503 262.975 48.8279C261.753 47.6055 261.133 46.1248 261.133 44.3859C261.133 43.0946 261.271 42.0788 261.563 41.3557C265.317 29.3725 272.066 19.5931 281.811 12.0176C291.556 4.44202 302.488 0.585375 314.609 0.43042H318.724C328.676 0.43042 337.663 2.63422 345.669 7.04182C353.675 11.4494 359.959 17.4754 364.505 25.1199C369.05 32.7643 371.323 41.3557 371.323 50.8768C371.323 69.213 355.81 94.4706 324.785 126.65H367.432H367.449Z" fill="#DA6A9E"/>
        <path d="M495.838 10.6058C505.944 17.682 513.881 27.427 519.649 39.8405C525.417 52.2541 528.309 66.114 528.309 81.4028C528.309 96.6917 525.417 110.551 519.649 122.965C513.881 135.379 505.944 145.124 495.838 152.183C485.731 159.259 474.471 162.788 462.057 162.788C449.644 162.788 438.349 159.259 428.174 152.183C417.999 145.106 410.027 135.379 404.259 122.965C398.492 110.551 395.599 96.6917 395.599 81.4028C395.599 66.114 398.492 52.2541 404.259 39.8405C410.027 27.427 417.999 17.682 428.174 10.6058C438.349 3.52952 449.644 0 462.057 0C474.471 0 485.731 3.52952 495.838 10.6058ZM475.693 121.123C479.739 117.163 482.942 111.705 485.335 104.784C487.711 97.8624 488.899 90.0631 488.899 81.4028C488.899 72.7426 487.711 64.9432 485.335 58.0219C482.959 51.1006 479.739 45.6427 475.693 41.6828C471.647 37.7228 467.102 35.7256 462.057 35.7256C457.013 35.7256 452.416 37.7056 448.318 41.6828C444.203 45.66 440.949 51.1006 438.573 58.0219C436.197 64.9432 435.009 72.7426 435.009 81.4028C435.009 90.0631 436.197 97.8624 438.573 104.784C440.949 111.705 444.203 117.163 448.318 121.123C452.433 125.1 457.013 127.08 462.057 127.08C467.102 127.08 471.647 125.1 475.693 121.123Z" fill="#DA6A9E"/>
        <path d="M648.881 126.65C652.634 126.65 655.492 127.631 657.438 129.576C659.383 131.522 660.365 134.38 660.365 138.133V148.085C660.365 151.701 659.383 154.507 657.438 156.521C655.492 158.553 652.634 159.552 648.881 159.552H558.818C555.202 159.552 552.43 158.57 550.485 156.625C548.539 154.679 547.558 151.821 547.558 148.068V138.116C547.558 137.255 547.696 135.947 547.988 134.225C547.988 132.348 549.142 130.472 551.449 128.595C567.461 114.735 581.751 100.893 594.32 87.0328C606.871 73.173 613.224 62.2745 613.379 54.3374C613.379 49.7232 611.795 45.8666 608.61 42.7502C605.442 39.6512 601.465 38.1016 596.696 38.1016H596.472C592.856 38.1016 589.223 39.083 585.539 41.0285C581.855 42.9741 578.859 45.901 576.552 49.7921C575.26 51.8237 573.986 53.2872 572.764 54.2341C571.541 55.181 570.061 55.6459 568.322 55.6459C567.306 55.6459 566.514 55.577 565.946 55.4221L549.28 51.531C547.265 50.9628 545.63 50.0503 544.407 48.8279C543.185 47.6055 542.565 46.1248 542.565 44.3859C542.565 43.0946 542.703 42.0788 542.995 41.3557C546.749 29.3725 553.498 19.5931 563.243 12.0176C572.988 4.44202 583.921 0.585375 596.041 0.43042H600.156C610.108 0.43042 619.095 2.63422 627.101 7.04182C635.107 11.4494 641.392 17.4754 645.937 25.1199C650.482 32.7643 652.755 41.3557 652.755 50.8768C652.755 69.213 637.242 94.4706 606.217 126.65H648.864H648.881Z" fill="#DA6A9E"/>
        <path d="M778.027 134.225C773.344 142.593 766.629 149.101 757.9 153.715C749.171 158.329 738.875 160.722 727.047 160.86H725.755C713.772 160.567 702.994 156.607 693.387 148.946C683.78 141.301 677.186 131.625 673.57 119.935C673.277 119.212 673.14 118.196 673.14 116.905C673.14 115.166 673.759 113.702 674.982 112.463C676.204 111.24 677.823 110.328 679.854 109.759L696.521 105.868C697.089 105.731 697.898 105.645 698.897 105.645C700.635 105.645 702.099 106.109 703.339 107.056C704.561 108.003 705.835 109.467 707.126 111.498C709.296 115.252 712.171 118.093 715.787 120.055C719.385 122.001 722.932 123.051 726.392 123.189C732.746 123.051 737.825 121.174 741.647 117.559C745.469 113.96 747.38 109.122 747.38 103.062C747.38 97.0016 745.211 92.7145 740.889 89.3227C736.568 85.9309 730.783 84.2436 723.569 84.2436C719.815 84.2436 715.528 84.9323 710.69 86.2925C705.852 87.6699 701.565 89.3571 697.812 91.3888C696.366 92.1119 695.212 92.4734 694.351 92.4734C692.905 92.4734 691.39 91.8192 689.806 90.5279L678.976 81.8677L677.892 80.783C676.308 79.6294 675.653 77.8905 675.946 75.5834L685.467 8.26424C686.19 4.37316 688.205 2.4104 691.528 2.4104H767.507C770.245 2.4104 772.379 3.39178 773.895 5.33732C775.41 7.28286 776.167 10.1409 776.167 13.8943V24.0696C776.167 31.5763 773.275 35.3296 767.507 35.3296H715.339L712.533 57.6259C719.316 56.1796 725.445 55.4565 730.938 55.4565H731.368C748.103 55.5943 761.24 60.0363 770.761 68.7654C780.282 77.4945 785.051 89.5121 785.051 104.818C785.051 116.078 782.71 125.892 778.009 134.26L778.027 134.225Z" fill="#DA6A9E"/>
        </g>
        <defs>
        <clipPath id="clip0_146_292">
        <rect width="1774.39" height="572.54" fill="white"/>
        </clipPath>
        </defs>
        </svg>